<?xml version="1.0" standalone="no"?>
<!DOCTYPE svg PUBLIC "-//W3C//DTD SVG 20010904//EN"
 "http://www.w3.org/TR/2001/REC-SVG-20010904/DTD/svg10.dtd">
<svg version="1.0" xmlns="http://www.w3.org/2000/svg"
 width="1700.000000pt" height="1700.000000pt" viewBox="0 0 1700.000000 1700.000000"
 preserveAspectRatio="xMidYMid meet">
<metadata>
Created by potrace 1.14, written by Peter Selinger 2001-2017
</metadata>
<g transform="translate(0.000000,1700.000000) scale(0.100000,-0.100000)"
fill="#000000" stroke="none">
<path d="M4192 16989 c-677 -41 -1231 -188 -1547 -410 -299 -211 -670 -719
-844 -1156 -118 -298 -184 -516 -216 -713 -23 -145 -91 -529 -110 -620 -8 -41
-33 -172 -55 -290 -64 -350 -65 -357 -117 -535 -74 -253 -162 -446 -341 -743
-120 -199 -176 -319 -170 -362 4 -23 -4 -33 -54 -70 -116 -84 -227 -222 -415
-510 -239 -367 -313 -550 -313 -777 0 -80 31 -327 43 -339 1 -1 2 97 2 219 1
194 4 231 22 297 22 81 75 221 80 216 2 -2 -7 -42 -21 -89 -76 -262 -86 -539
-27 -735 17 -54 17 -66 6 -90 -19 -38 -61 -186 -87 -306 -17 -76 -22 -135 -22
-241 0 -130 2 -145 28 -215 27 -69 29 -84 27 -188 -2 -87 3 -144 22 -245 14
-73 33 -181 41 -241 22 -150 69 -283 191 -541 99 -211 145 -331 145 -380 0
-13 -16 -77 -36 -142 -78 -250 -85 -289 -94 -463 -11 -223 -40 -321 -127 -435
-40 -53 -32 -51 39 7 44 36 108 140 108 175 0 38 20 -2 69 -135 l55 -147 0
-140 c1 -128 -1 -144 -23 -188 -13 -26 -38 -63 -56 -82 -39 -42 -22 -46 31 -6
42 31 75 65 92 96 23 40 1 -48 -25 -104 -30 -64 -77 -119 -112 -133 l-26 -10
25 -10 c61 -24 176 20 246 94 56 59 85 101 132 187 l40 73 10 -33 c31 -98 46
-221 46 -384 1 -152 -1 -177 -22 -236 -12 -36 -36 -87 -52 -113 -35 -55 -25
-59 28 -12 39 36 72 97 94 176 l13 45 3 -45 c5 -72 -16 -201 -43 -255 -13 -28
-39 -67 -58 -87 -34 -38 -34 -38 -8 -32 55 12 132 57 166 96 34 40 75 130 75
166 0 9 4 23 9 31 14 22 25 -109 17 -208 -13 -157 -36 -254 -116 -491 -95
-280 -110 -367 -92 -518 14 -124 41 -209 107 -347 72 -149 92 -171 51 -55 -84
238 -122 425 -111 544 7 71 46 242 62 270 4 8 8 -72 8 -177 0 -205 5 -243 57
-412 36 -119 79 -210 148 -309 55 -80 160 -200 167 -192 3 3 -6 40 -20 83 -27
84 -44 203 -29 203 21 0 81 -81 101 -135 39 -104 44 -147 26 -217 -9 -34 -23
-73 -31 -86 -28 -43 -7 -34 38 17 45 50 57 81 59 150 l1 36 14 -32 c20 -47 28
-132 15 -179 -6 -23 -29 -62 -51 -86 l-39 -45 64 13 c115 24 154 60 238 216
49 92 81 192 93 291 3 32 8 56 10 55 3 -4 91 -382 198 -858 26 -113 62 -265
81 -339 19 -74 35 -147 35 -162 0 -16 -16 -114 -35 -219 -45 -248 -46 -243 7
-268 24 -10 66 -27 94 -36 47 -15 52 -20 58 -54 8 -51 7 -165 -2 -178 -5 -9
-21 -9 -59 -1 -100 21 -118 -2 -199 -248 -66 -198 -107 -303 -199 -510 -51
-113 -65 -156 -61 -178 4 -21 -1 -37 -18 -60 -13 -18 -34 -52 -46 -77 -33 -65
-43 -76 -167 -183 -133 -115 -243 -237 -366 -407 -92 -127 -277 -400 -310
-458 l-18 -32 3149 0 3149 0 -18 83 c-9 45 -22 112 -27 149 -11 76 -45 154
-104 245 -37 57 -39 66 -34 110 3 26 13 161 21 298 9 138 27 326 40 419 39
263 38 267 -70 356 l-66 55 6 50 c20 163 78 559 88 610 l13 60 81 45 c103 57
171 108 188 140 14 26 23 76 80 445 46 292 102 574 121 602 15 24 159 580 198
768 31 149 69 398 95 615 11 91 36 269 55 395 37 239 74 527 102 775 9 80 18
262 21 405 5 234 3 273 -16 383 -11 68 -35 165 -52 215 -66 198 -198 429 -352
612 l-74 89 34 74 c19 41 46 118 60 171 22 83 26 117 26 256 1 227 -33 368
-147 610 -31 65 -56 122 -56 127 0 9 15 45 70 163 18 39 63 141 100 227 51
118 79 171 117 215 27 32 94 112 148 178 140 170 364 424 466 530 87 90 259
286 334 380 96 121 517 601 679 775 217 233 465 506 582 639 16 18 60 63 98
100 164 158 432 507 604 787 167 271 302 630 302 801 0 83 -39 280 -68 345
-19 44 -116 180 -180 253 -80 93 -252 263 -320 317 -40 32 -112 81 -160 110
-84 50 -90 52 -172 56 -97 4 -537 -45 -747 -84 -170 -31 -432 -92 -648 -150
-93 -26 -177 -47 -185 -47 -8 0 -19 -3 -25 -7 -5 -4 -142 -44 -304 -89 -298
-83 -685 -200 -746 -225 l-33 -14 53 -169 c30 -92 60 -190 68 -218 l14 -50 12
75 c41 244 119 438 183 452 43 10 462 127 598 167 74 22 136 38 139 36 2 -3
-8 -60 -23 -127 -32 -145 -48 -343 -45 -576 l3 -163 -75 -75 c-95 -97 -272
-249 -458 -393 -80 -62 -163 -129 -185 -148 l-39 -34 6 -127 c3 -70 11 -176
18 -237 14 -137 6 -508 -16 -690 -22 -190 -64 -397 -105 -525 -35 -109 -103
-291 -107 -286 -2 2 16 93 41 202 104 463 133 1122 71 1656 -34 296 -199 1170
-204 1083 -1 -6 12 -99 29 -205 38 -250 66 -509 80 -730 6 -96 17 -236 25
-310 27 -256 37 -544 26 -737 -25 -419 -91 -675 -262 -1013 -83 -165 -116
-212 -53 -75 162 348 218 524 265 835 13 90 22 695 9 635 -5 -22 -15 -96 -24
-165 -30 -247 -95 -658 -121 -760 -51 -205 -115 -418 -159 -528 -45 -116 -219
-502 -223 -498 -5 4 43 137 82 231 59 141 122 336 165 510 44 178 82 356 77
361 -2 2 -11 -22 -21 -54 -40 -127 -120 -328 -206 -518 -173 -376 -218 -512
-231 -699 l-7 -110 3 125 c4 183 34 275 259 782 112 253 170 422 220 640 32
138 38 187 52 415 30 488 -9 1217 -91 1713 -35 215 -220 845 -324 1104 -38 94
-179 354 -252 464 -61 93 -60 90 34 -113 199 -428 365 -929 452 -1360 40 -199
72 -409 79 -515 6 -91 1 -69 -25 125 -84 614 -291 1268 -605 1912 -76 157 -90
180 -161 253 -128 135 -223 198 -378 251 -91 32 -67 39 50 14 89 -19 173 -61
253 -126 35 -28 65 -49 67 -47 9 9 -116 161 -204 248 -101 100 -161 138 -274
172 l-62 18 75 -4 c69 -5 73 -4 55 10 -35 27 -108 61 -192 89 -46 16 -83 32
-83 37 0 14 74 9 152 -11 89 -23 178 -66 268 -130 93 -66 278 -248 377 -371
94 -116 261 -365 342 -507 75 -133 212 -420 263 -553 25 -63 69 -177 98 -253
29 -75 55 -135 57 -133 3 2 -14 60 -37 128 -205 605 -518 1151 -864 1507 -231
237 -436 355 -618 355 -75 0 -78 1 -89 28 -29 69 -164 144 -366 202 -257 74
-596 99 -1001 75z m2143 -1061 c13 -22 -1 -12 -41 31 -32 35 -61 69 -63 75 -6
20 84 -73 104 -106z m-397 -4 c39 -20 81 -48 94 -62 l23 -26 -35 25 c-45 33
-114 69 -165 85 -34 11 -36 13 -14 13 15 1 59 -15 97 -35z m222 -644 c50 -74
102 -178 134 -272 37 -109 31 -120 -8 -13 -48 132 -119 264 -188 347 -50 60
-53 66 -18 33 23 -22 59 -65 80 -95z m-1210 100 c47 -5 146 -21 220 -34 205
-38 314 -57 346 -61 16 -3 81 -11 144 -20 139 -19 318 -62 419 -101 86 -34 80
-24 159 -264 105 -320 193 -628 236 -823 44 -198 86 -417 81 -417 -2 0 -52 22
-112 49 -191 86 -234 96 -418 95 -127 -1 -179 -5 -252 -22 -82 -20 -283 -80
-283 -85 0 -1 102 -2 228 -3 246 -1 387 -17 594 -69 104 -27 254 -80 262 -94
7 -11 33 -182 46 -297 9 -86 8 -106 -5 -138 -23 -54 -79 -293 -115 -491 -62
-334 -142 -610 -236 -805 -88 -184 -169 -296 -329 -456 -230 -230 -288 -272
-675 -484 -113 -62 -259 -147 -325 -189 -202 -129 -222 -134 -345 -95 -47 14
-125 46 -174 71 -119 60 -601 337 -748 429 l-117 75 35 82 c59 135 111 268
138 353 30 89 80 346 73 372 -4 13 -5 13 -6 -3 0 -12 -19 -91 -40 -177 -39
-154 -118 -374 -189 -528 l-37 -79 -23 17 -23 18 79 164 c44 91 96 208 116
260 38 101 110 332 121 393 4 20 11 35 15 32 4 -2 10 24 14 58 3 34 10 94 16
132 5 39 9 114 10 168 0 58 4 96 9 92 13 -8 21 64 34 330 l12 230 95 0 c52 0
129 -3 170 -7 51 -5 67 -4 52 2 -13 6 -63 13 -110 16 -48 3 -97 7 -109 10 -21
4 -21 6 13 37 37 34 63 108 64 177 0 56 11 64 70 57 67 -8 151 -47 223 -104
32 -25 60 -43 62 -41 2 2 -13 33 -35 68 -22 36 -39 68 -40 73 0 4 17 7 38 8
35 0 92 17 64 18 -7 1 -11 5 -8 9 5 9 -90 34 -219 57 -49 9 -101 19 -114 21
l-24 5 29 30 28 29 -95 -2 c-90 -1 -91 -2 -29 -7 71 -7 64 -13 -34 -30 -33 -6
-63 -8 -67 -4 -14 15 32 458 50 474 7 7 164 -6 266 -22 82 -13 241 -51 304
-74 24 -8 46 -14 48 -12 2 3 -34 29 -79 59 -147 99 -244 139 -408 172 l-107
21 29 115 c71 286 178 538 319 756 106 163 251 327 343 388 44 30 107 34 256
16z m-366 -42 c-11 -13 -49 -54 -83 -93 -197 -218 -372 -536 -459 -835 -107
-369 -140 -660 -182 -1640 -12 -289 -61 -616 -126 -845 -30 -105 -112 -336
-124 -348 -4 -5 14 62 41 150 148 473 173 660 219 1628 15 322 33 489 80 765
78 458 286 881 578 1178 59 59 97 87 56 40z m5475 -353 c41 -20 72 -38 69 -40
-3 -3 -29 0 -58 6 -128 27 -364 -20 -556 -112 -104 -50 -272 -162 -354 -236
-64 -58 -297 -219 -305 -211 -5 5 102 320 146 430 l31 77 51 11 c181 39 698
107 827 109 67 1 84 -3 149 -34z m-304 -440 c281 -24 592 -162 819 -365 95
-84 186 -186 222 -248 25 -43 26 -48 15 -96 -44 -183 -174 -488 -277 -651
l-38 -60 -11 35 c-13 43 -45 115 -107 243 -193 396 -522 758 -801 882 -139 61
-354 109 -552 123 l-100 7 61 36 c73 44 111 53 319 79 236 29 267 30 450 15z
m-1453 -649 c-9 -18 -11 -16 -11 19 0 33 1 37 10 21 8 -12 8 -25 1 -40z m261
19 c189 -43 386 -133 542 -250 220 -163 459 -483 645 -860 70 -144 164 -380
165 -417 0 -9 -156 -183 -317 -353 l-57 -59 -21 19 c-12 11 -25 20 -29 20 -3
-1 -47 87 -97 195 -395 853 -853 1380 -1247 1436 l-47 6 78 77 c42 43 102 107
131 144 53 65 56 67 100 67 25 0 94 -11 154 -25z m-1456 -362 c-2 -16 -4 -5
-4 22 0 28 2 40 4 28 2 -13 2 -35 0 -50z m10 -105 c-2 -13 -4 -5 -4 17 -1 22
1 32 4 23 2 -10 2 -28 0 -40z m-449 -85 c11 -50 16 -97 11 -104 -8 -13 -10 -3
-29 128 -17 124 -10 114 18 -24z m459 -35 c-2 -13 -4 -5 -4 17 -1 22 1 32 4
23 2 -10 2 -28 0 -40z m-3137 7 c0 -25 -14 -33 -25 -15 -3 6 -15 10 -26 10
-10 0 -19 7 -19 15 0 10 11 15 35 15 31 0 35 -3 35 -25z m50 -19 c0 -39 -8
-50 -27 -35 -13 12 -18 60 -7 72 14 14 34 -7 34 -37z m-92 -198 c19 -19 14
-28 -13 -28 -18 0 -25 5 -25 20 0 22 20 26 38 8z m-2672 -80 c-12 -76 -74
-311 -106 -403 -38 -109 -95 -217 -154 -294 -46 -60 -143 -153 -178 -172 -18
-10 -19 -8 -13 13 22 72 73 173 170 333 107 178 226 410 261 513 10 28 20 52
23 52 2 0 1 -19 -3 -42z m6578 -333 c79 -93 191 -234 250 -313 113 -149 390
-558 400 -590 4 -12 -17 -68 -54 -147 -33 -70 -59 -129 -57 -131 2 -2 30 52
62 121 32 68 61 122 66 119 8 -4 64 -99 162 -272 33 -57 129 -265 139 -298 4
-15 -534 -654 -557 -661 -5 -2 -23 23 -40 54 -16 32 -54 95 -82 141 -42 67
-51 88 -43 102 6 10 10 22 10 27 -1 4 -6 -2 -14 -15 -12 -22 -15 -20 -92 85
-91 125 -198 254 -333 404 -53 58 -129 142 -169 187 l-74 83 36 127 c122 429
138 725 70 1276 l-6 51 92 -90 c50 -49 156 -166 234 -260z m-1129 -240 c8
-121 14 -256 14 -300 -1 -46 -9 34 -20 185 -16 237 -22 409 -13 355 2 -11 10
-119 19 -240z m-3091 -466 c-14 -57 -41 -142 -61 -189 -40 -96 -244 -471 -254
-468 -4 2 -25 20 -48 40 l-41 38 21 52 c30 77 66 132 178 272 103 129 163 223
201 314 13 29 24 51 26 49 2 -2 -8 -50 -22 -108z m3113 -56 c-2 -16 -4 -5 -4
22 0 28 2 40 4 28 2 -13 2 -35 0 -50z m-3517 -713 c21 -30 21 -32 5 -78 -10
-26 -25 -78 -35 -117 l-18 -70 -1 95 c-1 108 8 200 20 200 4 0 17 -14 29 -30z
m190 -324 c-12 -33 -33 -99 -47 -146 l-24 -85 5 85 c4 77 31 233 43 253 2 4
14 -4 25 -19 l21 -26 -23 -62z m75 13 c6 -9 45 -28 70 -33 6 -1 25 -10 43 -19
17 -10 32 -14 32 -10 0 3 34 -27 75 -69 41 -42 75 -81 75 -87 0 -6 4 -11 9
-11 5 0 36 -42 70 -92 33 -51 65 -98 69 -103 5 -6 21 -33 37 -60 16 -28 58
-92 92 -143 35 -51 63 -95 63 -98 0 -14 114 -144 126 -144 8 0 24 15 35 33
l20 32 -5 -30 c-3 -16 -17 -95 -30 -175 -14 -80 -39 -219 -56 -310 -42 -227
-47 -303 -25 -374 21 -68 37 -84 23 -23 -16 70 -2 229 40 462 22 121 51 277
63 348 22 126 23 127 49 127 29 0 81 -58 154 -173 241 -378 405 -1176 340
-1654 -6 -39 -9 -43 -42 -49 -77 -15 -282 51 -517 166 -200 98 -414 230 -696
431 -87 61 -78 44 -160 309 -75 244 -99 358 -99 473 0 96 1 100 49 205 104
228 114 371 40 547 -36 85 -50 235 -30 335 12 61 45 172 56 191 8 12 22 12 30
-2z m3710 -259 c140 -159 303 -385 433 -602 l52 -86 -81 -174 c-44 -95 -103
-227 -131 -293 -64 -154 -139 -315 -147 -315 -3 1 -46 67 -95 147 l-89 146 2
101 c1 56 -8 178 -19 271 -26 211 -37 539 -21 655 18 137 33 211 40 208 4 -2
30 -28 56 -58z m-342 -87 c9 -54 35 -186 57 -293 35 -163 42 -219 46 -345 l4
-150 -75 153 c-106 214 -128 294 -129 452 0 108 3 134 23 190 25 66 38 90 50
90 4 0 15 -44 24 -97z m-1228 -315 c-15 -66 -42 -169 -61 -228 -33 -104 -36
-110 -84 -145 -27 -20 -100 -60 -162 -90 -62 -30 -133 -68 -158 -84 l-44 -30
-28 26 c-47 45 -38 60 40 65 168 12 271 112 411 397 32 65 69 146 82 180 34
87 35 50 4 -91z m-4303 -89 c42 -21 53 -29 33 -25 -227 39 -232 41 -185 47 80
11 87 9 152 -22z m3205 -74 c24 -15 147 -126 272 -248 l228 -221 -18 -31 c-24
-39 -210 -225 -225 -225 -6 0 -15 16 -18 35 -13 66 -88 290 -131 386 -37 85
-130 238 -195 321 l-21 27 31 -9 c18 -5 52 -21 77 -35z m2041 6 c37 -51 84
-164 98 -241 8 -41 16 -151 19 -245 l5 -170 -35 70 c-78 156 -120 325 -132
523 -5 89 -4 102 9 97 8 -3 24 -19 36 -34z m251 -91 c61 -148 85 -190 254
-465 192 -310 230 -375 296 -508 170 -346 206 -652 109 -946 -28 -82 -109
-238 -140 -266 -13 -12 -15 -18 47 130 124 295 141 478 64 708 -29 89 -84 204
-75 157 25 -123 36 -217 36 -296 0 -89 -26 -260 -49 -314 -14 -36 -13 -21 4
52 28 120 36 245 25 351 -13 114 -57 296 -96 401 -40 104 -237 490 -331 646
-104 174 -137 241 -173 349 -26 77 -39 143 -26 130 2 -2 27 -60 55 -129z
m-1222 -32 c-3 -8 -6 -5 -6 6 -1 11 2 17 5 13 3 -3 4 -12 1 -19z m-3343 -59
c-7 -12 -45 -18 -37 -6 17 32 26 38 34 25 4 -6 6 -15 3 -19z m5446 -38 c-10
-14 -32 -42 -49 -61 l-31 -35 16 40 c9 22 25 58 36 79 19 37 21 39 34 22 11
-16 11 -23 -6 -45z m-6601 -1 c103 -25 184 -57 376 -151 124 -59 162 -84 220
-137 39 -36 71 -69 73 -73 2 -3 -24 0 -58 7 -218 51 -561 77 -723 55 -49 -7
-130 -23 -180 -37 -51 -14 -102 -28 -115 -31 l-22 -5 26 73 c60 169 114 242
214 292 64 32 80 33 189 7z m1479 -142 c17 -17 15 -50 -7 -159 -10 -52 -22
-119 -25 -149 -9 -75 9 -251 33 -330 11 -35 19 -66 17 -68 -10 -9 -178 18
-231 38 -65 25 -92 49 -248 227 l-28 32 63 -2 c87 -2 145 31 224 126 69 83 93
121 125 197 26 62 48 100 58 100 4 0 12 -5 19 -12z m-200 -205 c-42 -68 -101
-123 -155 -144 -16 -6 -57 -11 -93 -12 -60 -2 -71 1 -135 39 -39 23 -90 53
-115 67 -25 14 -67 46 -95 71 l-50 46 55 -21 c162 -63 326 -90 421 -70 53 12
133 48 178 81 14 10 27 17 29 15 2 -1 -16 -34 -40 -72z m4509 -83 c3 -25 1
-40 -6 -40 -6 0 -11 20 -11 47 0 55 11 51 17 -7z m118 -266 c16 -58 16 -63 -4
-132 -12 -39 -25 -73 -29 -76 -4 -2 -28 34 -52 82 -45 87 -45 87 -45 192 0 70
5 117 15 140 l14 34 42 -89 c24 -50 50 -117 59 -151z m-475 151 c13 -22 49
-91 81 -152 50 -95 59 -121 59 -165 0 -30 -4 -48 -9 -42 -8 8 -85 198 -140
344 -30 78 -28 81 9 15z m-710 -12 c0 -5 7 -52 15 -105 13 -96 8 -198 -12
-230 -30 -50 -128 -168 -131 -160 -2 6 6 58 17 114 11 57 22 128 25 158 9 80
-9 33 -24 -65 -7 -44 -18 -105 -25 -135 -7 -30 -16 -67 -19 -82 -3 -14 -51
-84 -107 -155 -203 -258 -273 -332 -357 -376 -221 -115 -723 -195 -1262 -200
l-274 -2 3 90 c3 99 -11 230 -35 343 -9 40 -15 74 -13 75 2 1 47 23 100 50
l96 47 139 -87 c319 -200 699 -363 845 -363 57 0 69 26 81 167 8 110 4 343 -8
406 -4 20 -1 28 13 33 59 18 280 158 291 184 2 4 39 38 83 75 l80 67 63 -60
c94 -90 136 -94 211 -16 24 25 61 73 82 107 46 77 122 150 123 120z m-219 -60
c22 -3 42 -10 45 -15 7 -11 -31 -72 -74 -120 -51 -57 -86 -49 -164 36 l-36 40
24 29 c14 16 31 42 39 58 l15 28 56 -26 c30 -14 73 -27 95 -30z m-3004 5 c-3
-7 -5 -2 -5 12 0 14 2 19 5 13 2 -7 2 -19 0 -25z m371 -113 c11 -27 23 -58 27
-68 6 -16 4 -18 -15 -15 -28 4 -38 32 -45 138 -3 58 -2 66 4 35 5 -22 18 -62
29 -90z m-299 -98 c10 -25 9 -27 -8 -17 -21 11 -47 72 -59 140 -15 81 0 75 28
-11 15 -46 32 -96 39 -112z m4386 -77 c17 -109 20 -206 5 -215 -5 -3 -10 -1
-10 5 0 7 -15 48 -34 91 l-35 79 26 70 c14 39 27 69 29 67 2 -2 10 -45 19 -97z
m-5302 -21 c188 -16 327 -60 442 -139 25 -17 92 -75 149 -128 135 -128 216
-170 348 -182 100 -10 462 -15 475 -7 4 3 46 7 93 9 l85 3 22 -105 c13 -65 22
-144 22 -207 l1 -103 -82 0 c-192 1 -339 33 -628 139 -90 34 -172 61 -181 61
-22 0 -59 39 -129 137 -102 142 -149 150 -393 70 -294 -98 -444 -121 -807
-121 -282 -1 -527 19 -534 43 -9 32 -35 268 -38 350 l-3 83 50 29 c57 32 147
57 244 69 100 11 730 11 864 -1z m-1433 -424 c123 -212 154 -303 148 -430 l-3
-70 -19 50 c-11 27 -55 124 -99 215 -123 256 -152 330 -182 458 -23 96 -19 95
38 -13 29 -55 82 -149 117 -210z m6580 58 c13 -48 20 -110 20 -165 l0 -89 -32
3 c-33 3 -33 4 -56 93 -18 75 -20 97 -11 129 6 22 13 73 17 115 l5 76 19 -43
c10 -23 28 -77 38 -119z m-3441 -440 c1 -41 -2 -53 -14 -53 -12 0 -15 18 -14
103 l1 102 13 -50 c7 -27 14 -74 14 -102z m4021 -327 l53 -70 -77 -72 c-42
-40 -114 -98 -159 -128 -97 -64 -216 -130 -223 -124 -8 8 88 147 181 263 48
61 104 134 123 163 19 29 38 49 42 45 3 -4 30 -39 60 -77z m-1814 32 c-35
-131 -32 -326 8 -513 27 -130 66 -380 66 -432 0 -36 -9 -63 -20 -63 -4 0 -5
29 -2 65 7 98 -13 199 -85 420 -63 192 -66 204 -66 300 0 70 5 113 17 145 25
67 98 136 82 78z m-3073 -157 c59 -55 84 -106 92 -188 4 -43 20 -141 36 -218
16 -77 29 -149 29 -161 0 -23 -95 -74 -325 -172 -371 -158 -592 -199 -1084
-204 l-244 -3 -33 90 c-36 100 -184 580 -184 598 0 9 99 12 383 12 628 0 747
25 1135 235 81 43 99 50 130 44 21 -4 50 -18 65 -33z m2706 -27 c-7 -16 -12
-67 -13 -114 -1 -105 19 -171 110 -377 76 -172 113 -276 121 -343 l6 -48 -54
-17 c-30 -9 -164 -36 -299 -61 -135 -24 -326 -60 -425 -79 -347 -65 -540 -88
-860 -100 -267 -11 -870 25 -946 55 -30 13 -39 39 -98 295 -22 94 -52 216 -65
272 -22 86 -47 228 -70 386 l-5 38 27 -19 c36 -25 127 -58 181 -66 24 -3 90
-15 146 -26 352 -67 910 -73 1330 -14 158 23 442 80 549 110 164 47 179 49
233 32 26 -8 54 -13 61 -10 7 2 27 31 43 64 31 61 50 75 28 22z m1332 -76 c-5
-13 -25 -55 -45 -95 -45 -92 -76 -194 -84 -280 l-7 -68 -60 -32 c-33 -18 -64
-33 -68 -33 -5 0 -6 19 -2 43 19 116 80 236 201 401 66 88 80 103 65 64z
m-246 -250 c-45 -85 -69 -157 -80 -241 -7 -50 -6 -50 -104 -88 -23 -9 -23 -8
-16 28 11 60 90 200 166 296 39 48 72 87 74 87 2 0 -16 -37 -40 -82z m-393
-17 c-4 -74 21 -257 44 -323 7 -22 11 -44 8 -49 -13 -22 -33 -4 -60 54 -26 56
-29 72 -29 167 0 72 6 123 18 163 10 31 19 57 20 57 2 0 1 -31 -1 -69z m555
-43 c-3 -8 -6 -5 -6 6 -1 11 2 17 5 13 3 -3 4 -12 1 -19z m-10 -95 c-3 -10 -5
-2 -5 17 0 19 2 27 5 18 2 -10 2 -26 0 -35z m1353 -347 c0 -14 -5 -28 -10 -31
-13 -8 -24 20 -16 40 9 24 26 17 26 -9z m-100 -210 c0 -19 51 -31 61 -14 5 7
9 9 9 3 0 -5 4 -3 10 5 5 8 11 12 13 10 8 -10 -22 -557 -32 -583 -6 -15 -16
-27 -22 -27 -7 0 -48 -21 -93 -47 -604 -349 -982 -514 -1501 -652 -194 -52
-392 -97 -399 -90 -2 2 7 54 20 114 39 173 86 444 81 463 -4 13 -5 12 -6 -5
-3 -66 -108 -562 -121 -577 -21 -21 -397 -75 -712 -102 -229 -19 -651 -22
-886 -5 -140 10 -166 15 -183 32 -11 11 -24 17 -29 14 -13 -8 -29 22 -32 63
-1 6 -7 12 -15 12 -7 0 -13 6 -13 14 0 8 -17 23 -37 33 -21 10 -37 24 -36 30
2 7 -6 15 -17 18 -11 4 -20 11 -20 16 0 5 -7 9 -16 9 -11 0 -14 6 -9 20 4 12
2 20 -5 20 -6 0 -8 4 -5 10 3 5 -6 12 -20 16 -32 8 -32 21 0 46 14 11 25 24
25 29 0 14 -28 11 -33 -3 -3 -8 -6 -6 -6 5 -1 22 26 32 106 40 35 4 89 19 125
36 49 22 84 30 153 35 87 6 117 9 160 19 11 2 92 12 180 21 88 9 207 27 265
39 93 19 139 21 405 22 198 0 308 4 325 12 14 6 45 19 70 29 25 10 65 30 90
45 25 15 58 30 74 33 17 4 41 15 55 25 14 9 43 26 64 36 21 11 66 42 99 68 58
47 64 49 271 102 342 86 654 208 1047 408 96 49 180 92 185 96 21 15 66 31 60
21 -4 -6 7 -10 27 -10 18 0 42 0 53 0 44 -2 180 35 190 50 9 15 25 12 25 -4z
m-4757 -583 c20 -71 49 -184 63 -253 14 -69 36 -169 50 -222 14 -53 24 -107
22 -120 -2 -18 -26 -35 -113 -78 -60 -31 -141 -68 -180 -84 -38 -16 -96 -39
-128 -52 -32 -13 -66 -24 -75 -24 -10 0 -37 29 -62 66 -24 36 -49 68 -54 71
-5 4 14 -28 44 -71 29 -42 51 -78 49 -80 -16 -13 -265 -84 -409 -116 -109 -24
-477 -80 -531 -80 l-36 0 -26 83 c-14 45 -40 134 -57 197 -18 63 -60 199 -95
301 l-63 186 117 6 c230 12 577 86 891 190 243 81 407 141 480 175 36 17 67
31 70 31 3 1 22 -56 43 -126z m196 -293 c17 -22 31 -44 31 -50 0 -7 16 -38 36
-71 30 -47 35 -64 30 -91 -3 -18 -9 -51 -12 -73 -7 -42 -60 -103 -76 -87 -4 4
-24 62 -44 128 -30 102 -44 159 -69 269 -4 18 0 20 34 17 31 -3 46 -12 70 -42z
m230 -270 c6 -19 7 -30 2 -25 -5 6 -13 24 -17 40 -9 39 0 30 15 -15z m4236
-631 c-43 -275 -88 -481 -107 -493 -26 -16 -31 -2 -13 34 9 18 15 34 12 36 -2
2 -15 -17 -28 -43 l-25 -47 -229 -79 c-597 -204 -1218 -377 -1675 -466 -249
-48 -270 -51 -270 -33 0 14 -1 14 -12 0 -13 -16 -127 -33 -403 -60 -189 -18
-699 -15 -890 6 -88 9 -208 20 -267 23 l-108 6 -20 66 c-24 81 -130 510 -130
526 0 6 26 24 58 39 57 27 59 27 157 17 679 -74 1120 -78 1618 -15 110 14 201
24 202 22 2 -2 -17 -64 -41 -138 -23 -74 -41 -136 -40 -138 2 -2 25 60 51 137
26 78 50 143 54 146 4 2 80 18 167 35 359 71 818 186 1084 272 162 53 435 156
680 257 137 56 196 76 198 67 2 -7 -9 -87 -23 -177z m-4155 -695 c39 -137 73
-258 76 -269 4 -11 -26 25 -66 80 -41 55 -113 153 -162 218 -71 94 -85 117
-69 117 11 0 24 6 28 14 4 7 26 24 48 38 22 14 46 33 54 42 8 9 16 15 18 13 2
-3 35 -116 73 -253z m-174 26 c39 -52 83 -114 100 -136 16 -23 49 -67 73 -99
24 -32 59 -92 79 -133 l35 -76 -44 -40 c-61 -54 -155 -97 -354 -162 -393 -129
-698 -186 -999 -188 l-189 -1 -38 165 c-21 91 -41 199 -44 240 -4 41 -15 106
-25 144 -11 38 -18 71 -16 74 2 2 66 8 143 13 443 30 784 114 1143 283 30 14
57 22 61 18 3 -4 37 -50 75 -102z m4002 -662 c-1 -68 -52 -345 -67 -362 -16
-19 -122 -76 -141 -76 -5 0 -10 9 -10 20 0 11 -2 20 -5 20 -3 0 -37 -21 -75
-47 -39 -25 -73 -43 -77 -40 -3 4 8 35 24 69 17 35 63 133 103 220 l72 156 77
31 c92 37 100 37 99 9z m-261 -175 c-30 -65 -82 -175 -115 -244 l-60 -126
-153 -60 c-243 -96 -650 -225 -664 -211 -2 2 8 29 21 62 27 63 26 86 -5 86
-11 0 -23 5 -26 10 -3 6 -19 10 -35 10 -16 0 -31 4 -34 9 -3 4 -27 12 -53 15
-27 4 -57 10 -68 12 -89 22 -274 -10 -308 -52 -11 -14 -80 -54 -156 -91 -75
-36 -170 -87 -212 -114 -86 -55 -121 -61 -145 -24 -14 22 -14 30 0 94 24 104
22 127 -11 137 -39 11 -105 5 -124 -12 -9 -8 -24 -12 -34 -8 -9 4 -20 3 -24
-2 -10 -14 -70 -46 -94 -49 -12 -2 -49 -13 -82 -24 -202 -72 -219 -74 -467
-66 -123 3 -245 10 -273 13 l-50 7 -33 135 c-36 151 -47 220 -35 220 5 0 63
-8 128 -17 100 -15 199 -17 582 -18 l462 0 -21 -35 c-12 -19 -36 -56 -55 -81
-18 -26 -33 -52 -33 -58 0 -21 16 -11 35 22 10 17 36 54 57 80 21 27 41 55 46
62 8 16 88 27 387 55 423 40 503 49 638 75 275 51 803 205 1032 301 17 7 32
11 34 9 2 -2 -22 -57 -52 -122z m-3192 -699 c72 -298 114 -495 108 -510 -7
-20 -107 -74 -248 -134 -155 -67 -295 -113 -420 -138 -182 -38 -623 -88 -710
-80 l-40 3 -127 320 c-70 176 -127 326 -128 333 0 9 35 12 143 12 268 1 517
36 737 106 235 74 537 205 604 261 16 13 30 22 32 20 2 -2 24 -88 49 -193z
m2946 -434 c12 -45 9 -272 -6 -398 -8 -67 -12 -129 -9 -137 3 -7 -3 -19 -15
-26 -14 -9 -17 -17 -10 -25 7 -9 -2 -20 -33 -42 -134 -92 -428 -187 -718 -232
-164 -25 -636 -62 -790 -62 -186 0 -536 38 -655 72 -38 11 -99 24 -134 29 -35
6 -66 13 -69 15 -2 3 -17 60 -33 128 -35 145 -32 180 14 209 47 28 76 35 357
84 409 71 1026 194 1475 295 570 128 518 118 575 116 38 -1 45 -4 51 -26z
m-671 -915 c46 -24 63 -65 81 -203 10 -78 2 -362 -10 -362 -15 0 -60 172 -76
290 -11 82 -47 201 -70 228 -40 50 -39 62 6 62 22 0 53 -7 69 -15z m-540 -39
c0 -18 -31 -26 -102 -26 -31 0 -91 -5 -133 -11 -82 -11 -98 -8 -74 16 15 15
133 31 247 34 47 1 62 -2 62 -13z m-1402 -220 c19 -96 52 -250 73 -343 55
-234 54 -227 41 -219 -7 4 -16 -3 -23 -17 -13 -29 -110 -88 -304 -186 -253
-127 -342 -151 -553 -151 l-137 1 -91 167 c-50 92 -101 192 -112 223 -11 30
-46 115 -76 189 -31 73 -55 134 -54 135 2 1 73 9 158 18 192 21 341 54 535
118 225 75 463 186 489 228 4 6 10 11 14 11 4 0 22 -78 40 -174z m978 80 c1
-1 -2 -39 -6 -86 -5 -47 -9 -130 -9 -186 -1 -55 -4 -103 -7 -106 -3 -4 -22 5
-41 18 -20 13 -54 27 -76 31 l-40 6 6 106 c6 96 24 192 41 220 5 7 29 8 69 4
34 -3 63 -6 63 -7z m-2592 -272 c9 -3 55 -63 103 -133 48 -69 135 -193 193
-276 59 -82 126 -185 150 -228 l43 -78 -59 6 c-33 3 -115 10 -183 15 -75 5
-127 14 -132 21 -4 6 -14 50 -23 98 -10 47 -23 106 -31 131 -7 25 -16 70 -20
100 -3 30 -19 119 -35 198 -17 79 -30 145 -30 147 0 7 5 6 24 -1z m2754 -235
c7 -60 -65 -73 -93 -16 -8 16 -15 31 -15 33 0 6 38 12 70 11 30 -2 35 -6 38
-28z m685 -459 c3 -11 2 -22 -1 -24 -23 -14 -146 -28 -337 -40 -207 -13 -255
-10 -255 13 0 5 73 11 163 15 162 7 369 31 397 47 22 13 27 11 33 -11z"/>
<path d="M4170 13522 c-8 -3 27 -14 79 -23 106 -21 132 -18 50 5 -72 19 -111
25 -129 18z"/>
<path d="M5840 13313 c-80 -14 -345 -91 -338 -99 3 -2 75 16 161 41 162 46
277 63 344 50 l38 -7 -25 -13 c-14 -7 -92 -27 -174 -45 -201 -43 -388 -111
-480 -175 -22 -16 -6 -21 22 -6 9 4 29 11 43 14 26 7 26 6 21 -43 -4 -40 1
-60 22 -105 15 -30 25 -59 22 -64 -4 -5 22 -12 56 -15 230 -20 317 -30 423
-47 66 -11 129 -22 140 -25 13 -4 17 -3 10 4 -8 8 -90 25 -244 48 l-34 5 29
19 c16 9 47 36 69 59 39 41 40 43 44 126 1 47 4 85 6 85 1 0 38 -12 81 -26 90
-31 213 -93 228 -116 14 -23 -17 -98 -65 -151 -44 -51 -47 -62 -18 -70 16 -4
18 -3 9 8 -9 11 -6 16 12 25 13 7 50 33 83 59 l60 46 -23 -35 c-18 -27 -13
-23 22 15 25 28 48 58 51 67 3 9 21 26 40 37 45 26 44 41 -2 42 -27 0 -32 3
-20 8 15 5 -1 17 -69 51 -49 25 -90 50 -91 55 -2 6 7 16 19 24 23 14 27 12 66
-45 11 -18 12 -17 6 4 -5 22 -4 23 15 13 36 -20 23 -3 -19 25 -24 16 -39 33
-36 41 4 9 -4 13 -28 13 -19 0 -75 20 -130 46 -54 25 -100 43 -103 40 -8 -8
-8 -8 75 -41 124 -49 124 -57 3 -50 -57 3 -118 9 -134 12 l-30 6 29 24 c16 12
23 23 15 23 -11 0 -10 4 3 19 16 17 15 19 -15 25 -34 6 -148 6 -189 -1z m52
-189 c5 -3 7 -22 7 -42 -1 -27 -3 -31 -6 -12 -6 34 -23 50 -23 22 0 -22 -1
-22 -29 -8 -29 16 -45 39 -33 51 7 6 69 -2 84 -11z m-102 -4 c0 -5 -9 -10 -21
-10 -11 0 -17 5 -14 10 3 6 13 10 21 10 8 0 14 -4 14 -10z m153 -28 c10 -40 6
-72 -8 -72 -10 0 -15 10 -15 28 0 15 -3 37 -6 50 -5 17 -3 21 9 16 9 -3 18
-13 20 -22z m-390 -182 c-6 -22 -33 -28 -33 -7 0 16 21 38 31 32 4 -3 5 -14 2
-25z m92 -10 c8 -13 61 -13 86 0 15 9 25 4 56 -25 l38 -36 -120 6 c-124 7
-149 13 -137 31 18 27 66 42 77 24z"/>
<path d="M6150 12756 c0 -2 11 -11 25 -20 28 -19 33 -15 9 8 -14 15 -34 22
-34 12z"/>
<path d="M5095 12655 c7 -59 37 -167 70 -255 16 -41 16 -48 2 -80 -9 -19 -26
-51 -38 -70 -20 -30 -20 -33 -3 -18 10 9 32 42 49 73 27 51 28 57 16 88 -31
72 -70 197 -76 243 -11 74 -27 91 -20 19z"/>
<path d="M3802 12000 c0 -14 2 -19 5 -12 2 6 2 18 0 25 -3 6 -5 1 -5 -13z"/>
<path d="M4130 11791 c0 -25 30 -49 129 -100 76 -40 288 -117 297 -108 3 2
-37 19 -87 36 -126 44 -261 113 -304 156 -29 30 -35 33 -35 16z"/>
<path d="M5227 11635 c-21 -19 -61 -42 -88 -51 -73 -27 -51 -29 28 -4 73 24
89 34 104 61 16 31 -5 28 -44 -6z"/>
<path d="M8372 11485 c-17 -37 -14 -45 4 -12 9 16 14 31 11 33 -2 2 -9 -7 -15
-21z"/>
<path d="M8156 10985 c-9 -26 -7 -32 5 -12 6 10 9 21 6 23 -2 3 -7 -2 -11 -11z"/>
<path d="M8122 10905 c-17 -37 -14 -45 4 -12 9 16 14 31 11 33 -2 2 -9 -7 -15
-21z"/>
<path d="M5952 5865 c0 -16 2 -22 5 -12 2 9 2 23 0 30 -3 6 -5 -1 -5 -18z"/>
<path d="M5476 4095 c-3 -9 -6 -22 -5 -28 0 -7 5 -1 10 12 5 13 8 26 5 28 -2
2 -6 -3 -10 -12z"/>
<path d="M5451 4019 c-6 -18 -9 -34 -7 -36 2 -2 9 10 15 28 6 18 9 34 7 36 -2
2 -9 -10 -15 -28z"/>
<path d="M5426 3955 c-3 -9 -6 -22 -5 -28 0 -7 5 -1 10 12 5 13 8 26 5 28 -2
2 -6 -3 -10 -12z"/>
<path d="M12893 16980 c-189 -33 -339 -94 -509 -208 -257 -174 -457 -379 -649
-667 -205 -309 -325 -626 -376 -995 -18 -130 -18 -704 0 -865 29 -262 72 -497
87 -482 3 2 0 33 -6 68 -12 77 -13 313 0 284 4 -11 16 -63 25 -115 30 -169
100 -352 189 -490 34 -53 34 -56 17 -70 -30 -25 -41 -56 -52 -147 -8 -68 -6
-110 6 -197 21 -144 58 -327 101 -501 19 -76 31 -142 26 -145 -4 -4 -27 -15
-52 -25 -25 -10 -46 -20 -48 -21 -7 -4 29 -77 88 -175 59 -98 83 -129 102
-129 19 0 5 96 -37 255 -103 389 -178 750 -178 855 0 64 20 158 43 199 26 49
63 12 89 -90 136 -516 210 -732 362 -1056 27 -57 49 -110 49 -117 0 -35 100
-342 185 -572 52 -139 107 -295 121 -346 14 -51 32 -115 39 -143 l14 -49 -55
-71 c-30 -38 -80 -103 -111 -144 -78 -103 -209 -233 -332 -330 l-105 -83 -17
23 c-55 74 -384 631 -493 839 -45 84 -79 133 -128 184 -66 68 -68 72 -68 121
0 28 9 69 20 93 24 53 37 51 125 -15 l60 -46 -69 65 c-68 63 -69 65 -63 106 5
43 48 112 69 112 6 0 64 -27 129 -60 65 -33 125 -60 133 -60 23 0 20 17 -4 25
-16 5 -20 15 -20 55 0 51 -9 73 -128 320 -84 175 -128 281 -238 577 -75 201
-98 275 -104 333 l-7 75 -2 -66 c-1 -43 6 -88 20 -130 38 -116 189 -513 243
-641 l16 -37 -165 -85 c-282 -145 -375 -216 -491 -369 -40 -54 -44 -64 -44
-118 0 -57 37 -272 65 -374 31 -114 53 -90 -197 -214 -540 -269 -552 -276
-656 -404 -113 -138 -250 -400 -272 -519 -29 -153 -72 -486 -85 -653 -10 -116
-33 -287 -60 -440 -25 -137 -56 -342 -70 -455 -14 -113 -41 -299 -60 -415 -19
-115 -41 -273 -50 -350 -9 -77 -27 -205 -40 -284 -45 -266 -58 -421 -59 -686
0 -142 5 -297 12 -358 7 -59 13 -138 13 -175 0 -60 -39 -334 -91 -643 -24
-141 -25 -227 -4 -310 14 -55 15 -74 3 -158 -10 -69 -14 -220 -14 -536 0 -470
6 -540 56 -667 53 -134 180 -261 326 -324 200 -87 323 -119 568 -150 65 -8
120 -16 121 -17 0 -1 -2 -29 -6 -62 -4 -33 -17 -138 -29 -233 -24 -200 -28
-218 -86 -367 -62 -158 -99 -379 -115 -675 -9 -179 -25 -260 -86 -440 -32 -93
-35 -108 -25 -142 7 -21 15 -38 20 -38 4 0 18 -22 30 -48 28 -59 26 -100 -12
-312 -56 -317 -95 -808 -67 -860 5 -10 21 -20 34 -24 l25 -6 -25 -25 c-13 -13
-24 -33 -24 -43 0 -27 -19 -218 -26 -264 l-6 -38 3001 0 3001 0 0 225 c0 222
0 224 -23 241 l-23 18 34 55 c37 61 38 76 13 246 -6 39 -17 164 -26 280 -21
283 -31 340 -83 458 l-25 57 29 53 c42 75 39 149 -15 337 -197 694 -269 970
-272 1051 -5 120 0 289 9 289 5 0 33 -30 63 -67 89 -111 169 -196 257 -274
l84 -74 -7 -100 c-4 -55 -8 -101 -9 -103 -2 -1 -16 4 -32 13 -16 8 -50 15 -76
15 -52 0 -78 -23 -78 -70 0 -33 112 -171 178 -218 59 -43 140 -82 170 -82 12
0 33 -7 45 -15 73 -48 241 -56 272 -12 13 19 24 21 122 21 98 1 113 4 160 28
28 15 54 36 58 47 8 27 0 129 -25 291 -11 74 -23 191 -26 260 -6 125 -6 125
14 101 11 -13 32 -48 48 -78 l29 -54 -28 -50 c-16 -28 -26 -53 -23 -56 5 -6
66 86 66 99 0 15 -51 111 -77 146 l-24 32 21 35 c12 19 17 35 11 35 -5 0 -22
-21 -37 -47 l-28 -46 12 -171 c6 -94 23 -239 37 -323 13 -84 22 -158 19 -166
-3 -8 -31 -27 -63 -41 -50 -22 -73 -26 -151 -26 l-93 0 7 63 c3 34 15 156 26
270 13 129 26 219 35 237 17 34 18 40 6 40 -21 0 -40 -74 -51 -200 -19 -226
-39 -398 -51 -424 -13 -27 -35 -36 -95 -36 -42 0 -169 34 -178 48 -2 4 10 107
29 229 26 179 37 227 54 249 21 27 22 42 2 29 -27 -16 -45 -80 -76 -271 -19
-113 -37 -209 -40 -214 -10 -16 -36 -12 -90 14 -67 31 -127 87 -180 166 -58
89 -62 103 -29 125 25 16 31 16 73 3 l46 -14 1 -55 c1 -29 5 -55 10 -57 11 -3
20 65 30 216 l7 113 -103 97 c-115 109 -176 180 -372 433 -152 195 -204 252
-259 280 -21 10 -40 23 -43 28 -10 15 24 308 45 389 25 100 82 232 136 316 53
82 150 182 186 191 14 4 51 1 83 -5 51 -11 67 -21 124 -75 131 -126 360 -319
413 -349 l32 -19 -20 21 c-11 11 -60 55 -110 97 -49 43 -122 108 -162 145
l-72 67 63 17 c100 27 242 140 327 260 64 90 83 140 310 803 63 186 79 273 79
435 0 80 5 109 26 165 14 37 34 93 46 123 26 70 27 145 3 239 -18 73 -18 74 4
149 12 42 47 129 77 194 58 126 69 169 79 313 3 50 12 167 20 260 8 94 17 222
20 285 5 104 12 206 46 660 17 231 24 1310 9 1444 -16 146 -60 319 -99 392
-42 78 -145 194 -256 289 -79 67 -384 278 -519 357 -26 16 -48 34 -51 40 -2 7
-14 48 -27 91 -18 63 -33 91 -76 140 -29 34 -122 172 -206 307 -313 500 -346
548 -420 618 -83 78 -199 128 -546 233 -91 28 -218 74 -282 102 -114 50 -118
53 -118 83 0 82 112 335 214 483 l51 75 7 -122 c7 -124 25 -207 58 -269 l18
-34 4 173 c4 163 6 178 36 265 41 119 88 223 101 223 7 0 11 -27 12 -67 0 -62
15 -170 18 -132 7 101 37 258 62 332 17 51 71 180 119 287 204 454 270 730
270 1130 0 592 -149 1056 -475 1475 -80 102 -266 283 -374 363 -197 146 -477
239 -889 296 -156 22 -444 20 -579 -4z m539 -5 c265 -31 587 -114 741 -191
183 -92 448 -323 589 -514 121 -162 225 -357 295 -550 111 -305 165 -745 133
-1071 -14 -141 -45 -311 -69 -384 -23 -68 -24 -86 5 145 22 170 30 519 15 632
-18 131 -51 288 -67 318 -18 33 -53 74 -59 68 -2 -2 0 -20 4 -39 5 -19 12 -79
15 -134 5 -92 4 -98 -9 -70 -8 17 -14 35 -15 42 -1 25 -90 332 -118 409 -59
157 -190 429 -169 349 22 -80 30 -117 42 -184 7 -42 11 -78 9 -80 -2 -2 -11 2
-20 9 -18 15 -146 168 -184 220 -152 207 -349 417 -453 484 -32 20 -77 43
-100 50 -46 15 -157 30 -157 21 0 -3 7 -40 16 -81 14 -71 13 -111 -2 -68 -47
133 -66 172 -87 178 -12 3 -67 35 -122 71 -201 132 -273 152 -469 135 -69 -7
-130 -9 -135 -5 -6 3 -21 -1 -33 -9 -13 -8 -39 -17 -58 -21 -34 -7 -210 -77
-323 -129 l-58 -26 43 57 c23 32 51 68 62 81 45 52 -23 9 -194 -121 -104 -80
-245 -203 -347 -305 -29 -29 -53 -50 -53 -46 0 10 86 128 143 196 l50 61 -51
-7 c-32 -4 -60 -2 -73 4 -17 10 -31 3 -95 -46 -42 -32 -124 -108 -182 -169
-116 -120 -110 -101 17 59 224 283 549 525 817 609 73 23 194 49 279 60 76 10
312 6 427 -8z m53 -1555 c86 -324 134 -467 196 -592 16 -32 29 -61 29 -65 0
-4 -36 -7 -81 -5 -97 4 -235 -13 -293 -35 -45 -19 -109 -54 -104 -58 2 -2 26
1 53 6 85 16 312 29 395 22 l79 -6 61 -83 c34 -46 64 -84 66 -84 6 0 -24 70
-47 108 -10 18 -19 37 -19 43 0 27 40 -2 146 -103 64 -62 122 -117 130 -121 8
-4 14 -20 14 -34 0 -20 -4 -24 -17 -18 -48 19 -229 67 -318 84 -152 30 -178
33 -205 22 -22 -8 -18 -10 25 -11 170 -2 515 -100 515 -145 0 -20 -2 -19 -60
10 -189 96 -378 121 -536 71 -43 -14 -92 -35 -109 -46 l-30 -21 28 7 c22 5 26
3 21 -10 -8 -20 -9 -21 64 9 34 14 68 25 75 25 10 0 13 -21 13 -82 0 -78 4
-94 42 -172 2 -4 -20 -5 -49 -1 -83 11 -53 -3 54 -24 138 -29 265 -43 315 -36
41 6 50 25 12 25 -15 0 -14 5 11 31 16 18 42 58 57 90 15 32 30 59 34 59 15 0
17 -39 4 -85 -18 -58 -13 -70 20 -49 13 9 27 14 31 11 9 -10 -17 -280 -43
-441 -45 -277 -110 -503 -223 -785 -12 -29 -20 -55 -18 -57 7 -7 66 78 124
181 35 61 63 107 63 103 0 -3 -16 -52 -36 -109 -37 -108 -86 -212 -112 -242
-62 -70 -912 -383 -1059 -389 -45 -2 -59 2 -110 37 -72 49 -399 375 -515 515
-116 139 -201 303 -233 450 -7 33 -2 29 91 -66 91 -92 193 -181 183 -159 -3 6
-28 59 -57 119 -95 199 -145 376 -171 620 -11 99 -9 136 4 74 19 -86 159 -427
171 -415 3 2 -2 22 -10 43 -55 144 -104 395 -131 677 l-7 69 24 -13 23 -12
-22 25 c-13 13 -23 30 -23 37 0 7 11 -1 24 -16 32 -37 39 -27 20 30 -29 85
-15 100 114 122 l42 7 0 -49 c0 -43 12 -100 34 -171 8 -23 6 -23 -41 -18 -39
4 -35 2 27 -14 41 -11 126 -25 188 -31 l114 -12 24 29 c34 42 64 111 64 150 0
41 6 42 42 7 15 -15 28 -21 28 -14 0 21 -103 116 -151 139 -69 33 -199 55
-301 50 -48 -2 -85 -2 -83 1 3 2 33 10 68 17 43 8 52 12 30 13 -43 1 -189 -34
-219 -53 -32 -21 -34 -20 -34 13 0 26 9 34 83 76 46 25 109 66 141 90 65 49
55 48 228 14 53 -11 134 -35 180 -55 46 -19 90 -38 98 -42 8 -3 -2 13 -22 36
-21 23 -38 48 -38 55 0 7 22 20 49 30 96 34 182 103 305 247 30 36 37 40 31
20 -18 -60 -75 -150 -135 -212 -36 -38 -66 -68 -65 -68 246 70 387 223 519
561 25 63 48 127 52 142 3 16 10 25 14 20 3 -4 19 -55 35 -113z m-878 -304
c-6 -67 -41 -249 -52 -266 -3 -5 -125 19 -174 36 -10 3 -3 17 26 47 58 61 134
155 168 210 17 26 32 47 34 47 2 0 1 -33 -2 -74z m513 -129 c0 -2 -12 -14 -27
-28 l-28 -24 24 28 c23 25 31 32 31 24z m503 -258 c101 -1 14 -16 -128 -22
-101 -4 -133 -3 -115 5 28 11 158 27 178 22 8 -2 37 -4 65 -5z m-1157 -189 c8
0 14 -10 14 -25 l0 -26 -30 23 c-32 23 -41 44 -14 34 9 -3 22 -6 30 -6z m87
-38 c17 -15 24 -72 10 -85 -12 -13 -43 26 -44 57 -1 17 -3 23 -6 14 -7 -29
-23 -20 -23 13 0 27 3 30 23 23 12 -3 30 -13 40 -22z m-253 -92 c0 -5 -7 -10
-15 -10 -8 0 -15 5 -15 10 0 6 7 10 15 10 8 0 15 -4 15 -10z m115 -50 c3 -5
23 -10 44 -10 37 0 61 -14 61 -36 0 -19 -35 -23 -112 -13 -86 11 -103 23 -69
50 25 20 66 25 76 9z m1453 -19 c8 -4 12 -18 10 -31 -3 -22 -4 -22 -42 9 l-39
31 29 0 c16 0 35 -4 42 -9z m42 -47 c0 -21 -4 -33 -10 -29 -5 3 -10 19 -10 36
0 16 5 29 10 29 6 0 10 -16 10 -36z m44 7 c21 -23 13 -43 -12 -34 -16 6 -16 5
0 -13 13 -15 14 -23 6 -39 -11 -19 -11 -19 -19 0 -10 27 -11 105 -1 105 5 0
17 -9 26 -19z m-309 -91 c3 -5 -1 -10 -10 -10 -9 0 -13 5 -10 10 3 6 8 10 10
10 2 0 7 -4 10 -10z m105 -19 c0 -34 23 -43 69 -28 39 14 41 14 56 -10 28 -42
13 -57 -48 -49 -28 4 -74 9 -101 11 -60 4 -74 16 -57 48 21 39 81 61 81 28z
m1150 -21 c45 -24 54 -151 21 -283 -25 -97 -42 -134 -103 -223 -51 -74 -91
-117 -122 -128 -14 -5 -17 -2 -13 11 3 10 18 61 35 113 16 52 46 165 67 250
48 198 49 200 80 200 17 0 29 -7 35 -22 6 -17 9 -18 9 -6 1 26 -29 50 -56 45
-17 -3 -23 0 -23 14 0 17 24 38 43 39 5 0 17 -4 27 -10z m-2898 -1028 c80 -55
227 -265 299 -427 17 -39 19 -49 8 -56 -28 -17 -283 -100 -294 -95 -26 9 -110
263 -200 601 -25 93 -45 174 -45 179 0 5 42 -31 93 -80 50 -50 113 -105 139
-122z m1769 -468 c-28 -32 -49 -59 -47 -62 6 -5 90 24 136 48 22 11 43 20 48
20 4 0 5 -28 0 -62 -4 -35 -8 -160 -8 -278 -1 -228 17 -416 44 -468 19 -36
124 -123 275 -227 l116 -81 -3 -54 c-2 -30 -15 -90 -30 -135 -26 -76 -29 -81
-72 -102 -225 -112 -522 -250 -595 -277 -49 -19 -173 -55 -275 -80 -301 -76
-340 -94 -422 -196 -27 -33 -53 -58 -58 -55 -30 18 -111 149 -174 281 -81 166
-109 204 -154 204 -28 0 -30 4 -52 78 -13 42 -47 142 -76 221 -30 80 -54 147
-54 150 0 3 22 16 49 29 27 12 72 38 100 56 43 29 51 32 55 18 13 -45 28 -238
23 -287 -6 -62 6 -73 23 -20 13 40 4 151 -35 459 -16 124 -25 239 -25 331 0
129 2 145 21 169 33 42 51 47 103 30 39 -13 57 -14 114 -4 72 12 452 137 617
202 55 22 151 58 214 80 63 21 130 48 150 58 20 10 38 17 40 15 2 -2 -20 -30
-48 -61z m435 -37 c0 -50 3 -104 7 -119 l7 -28 -60 33 c-40 21 -58 37 -55 46
5 13 95 161 99 161 0 0 1 -42 2 -93z m-2855 -1302 c33 -58 34 -61 14 -69 -20
-7 -47 24 -88 103 -56 107 -56 125 -2 66 26 -27 60 -72 76 -100z m2033 -778
c16 -12 16 -18 -3 -112 -11 -55 -25 -135 -32 -177 l-12 -78 -28 17 c-16 10
-41 27 -56 38 l-26 21 18 130 c14 99 22 134 38 152 23 25 73 30 101 9z m-1511
-225 l-27 -49 18 -40 c15 -34 16 -48 7 -99 -23 -132 -91 -767 -91 -864 -1 -42
-3 -46 -36 -61 l-35 -17 5 57 c3 31 8 106 11 166 8 149 71 786 90 910 23 147
22 145 57 92 l29 -45 -28 -50z"/>
<path d="M12438 14673 c7 -3 16 -2 19 1 4 3 -2 6 -13 5 -11 0 -14 -3 -6 -6z"/>
<path d="M12480 14664 c8 -4 39 -15 68 -26 29 -11 66 -31 84 -46 27 -23 30
-24 20 -5 -14 25 -102 70 -152 78 -19 3 -28 2 -20 -1z"/>
<path d="M12343 14643 c9 -2 23 -2 30 0 6 3 -1 5 -18 5 -16 0 -22 -2 -12 -5z"/>
<path d="M12408 14633 c7 -3 16 -2 19 1 4 3 -2 6 -13 5 -11 0 -14 -3 -6 -6z"/>
<path d="M12595 14280 c-3 -5 -2 -10 4 -10 5 0 13 5 16 10 3 6 2 10 -4 10 -5
0 -13 -4 -16 -10z"/>
<path d="M12765 13910 c-30 -60 -55 -116 -55 -123 0 -7 20 -54 45 -103 46 -90
54 -72 9 22 -31 65 -30 76 7 165 40 97 59 149 54 149 -3 0 -30 -49 -60 -110z"/>
<path d="M12599 13230 c13 -11 33 -20 45 -20 18 0 16 3 -12 20 -42 26 -64 25
-33 0z"/>
<path d="M13145 13160 l-90 -6 120 -1 c66 -1 131 3 145 7 30 10 -37 10 -175 0z"/>
<path d="M7230 14416 c0 -2 12 -53 26 -113 44 -188 134 -605 145 -673 5 -36
25 -137 43 -225 27 -124 34 -149 35 -112 1 26 -11 100 -25 165 -43 200 -64
324 -64 384 0 37 -16 117 -45 225 -59 219 -115 388 -115 349z"/>
<path d="M11654 13286 c3 -24 15 -50 30 -65 l25 -25 -18 39 c-45 98 -42 94
-37 51z"/>
<path d="M11135 13199 c-4 -17 -4 -33 -1 -36 3 -4 6 1 6 10 0 10 9 26 20 37
19 19 19 20 1 20 -14 0 -21 -9 -26 -31z"/>
<path d="M11258 13122 c10 -21 25 -49 34 -63 l17 -24 -12 30 c-17 40 -47 95
-52 95 -2 0 4 -17 13 -38z"/>
<path d="M11909 12003 c23 -35 41 -50 41 -35 0 4 -14 21 -32 38 l-31 29 22
-32z"/>
<path d="M16540 3826 c0 -2 8 -10 18 -17 15 -13 16 -12 3 4 -13 16 -21 21 -21
13z"/>
<path d="M16580 3796 c0 -2 8 -10 18 -17 15 -13 16 -12 3 4 -13 16 -21 21 -21
13z"/>
<path d="M16620 3766 c0 -2 8 -10 18 -17 15 -13 16 -12 3 4 -13 16 -21 21 -21
13z"/>
<path d="M16661 3710 c14 -31 19 -36 19 -24 0 6 -7 19 -16 30 -14 18 -14 18
-3 -6z"/>
<path d="M16561 3509 c16 -34 32 -59 35 -57 4 5 -55 118 -62 118 -2 0 10 -27
27 -61z"/>
<path d="M16600 3439 c0 -4 9 -26 20 -50 11 -24 19 -37 19 -29 0 15 -38 91
-39 79z"/>
<path d="M16770 3415 c0 -5 5 -17 10 -25 5 -8 10 -10 10 -5 0 6 -5 17 -10 25
-5 8 -10 11 -10 5z"/>
<path d="M16790 3365 c0 -5 5 -17 10 -25 5 -8 10 -10 10 -5 0 6 -5 17 -10 25
-5 8 -10 11 -10 5z"/>
<path d="M16810 3315 c0 -5 5 -17 10 -25 5 -8 10 -10 10 -5 0 6 -5 17 -10 25
-5 8 -10 11 -10 5z"/>
<path d="M16831 3265 c0 -5 6 -21 14 -35 8 -14 14 -20 14 -15 0 6 -6 21 -14
35 -8 14 -14 21 -14 15z"/>
<path d="M16861 3196 c-1 -5 28 -69 64 -144 36 -74 65 -141 65 -149 0 -18 -53
-71 -145 -145 -83 -67 -195 -181 -195 -199 0 -7 42 28 93 78 50 50 108 104
127 120 81 64 130 117 130 138 0 21 -138 320 -139 301z"/>
</g>
</svg>
