<?xml version="1.0" standalone="no"?>
<!DOCTYPE svg PUBLIC "-//W3C//DTD SVG 20010904//EN"
 "http://www.w3.org/TR/2001/REC-SVG-20010904/DTD/svg10.dtd">
<svg version="1.0" xmlns="http://www.w3.org/2000/svg"
 width="1700.000000pt" height="1700.000000pt" viewBox="0 0 1700.000000 1700.000000"
 preserveAspectRatio="xMidYMid meet">
<metadata>
Created by potrace 1.14, written by Peter Selinger 2001-2017
</metadata>
<g transform="translate(0.000000,1700.000000) scale(0.100000,-0.100000)"
fill="#000000" stroke="none">
<path d="M4355 16994 c-330 -24 -489 -43 -708 -85 -280 -53 -562 -144 -736
-237 -258 -138 -530 -425 -773 -816 -99 -159 -174 -314 -262 -544 -109 -286
-146 -423 -195 -732 -24 -148 -87 -496 -101 -560 -6 -25 -28 -142 -50 -260
-63 -345 -85 -438 -154 -637 -73 -207 -130 -322 -305 -613 -109 -181 -160
-292 -161 -347 0 -26 -8 -38 -48 -67 -95 -69 -254 -254 -347 -401 -21 -33 -63
-98 -95 -145 -169 -250 -264 -468 -290 -663 -9 -68 -8 -107 4 -205 16 -120 35
-222 41 -222 2 0 1 73 -2 163 -7 195 5 288 54 440 38 121 53 141 22 32 -73
-259 -78 -561 -14 -747 11 -33 10 -42 -6 -75 -24 -50 -74 -244 -94 -363 -27
-171 -14 -343 33 -436 17 -34 19 -54 15 -154 -4 -91 -1 -136 16 -215 11 -55
23 -125 26 -155 25 -215 70 -356 200 -628 105 -222 127 -274 144 -348 14 -58
13 -65 -49 -264 -57 -183 -60 -199 -70 -385 -11 -226 -49 -348 -137 -445 -43
-49 -30 -52 28 -7 58 44 107 110 121 163 7 24 15 44 18 44 3 0 30 -69 60 -153
l54 -152 1 -135 c0 -153 -9 -182 -87 -266 -40 -44 -40 -44 -12 -34 52 20 94
51 119 88 34 50 33 16 -1 -58 -36 -77 -71 -120 -113 -137 -32 -14 -34 -17 -16
-24 32 -12 89 -10 135 6 96 34 178 122 261 278 l36 68 11 -38 c40 -137 63
-413 43 -525 -14 -83 -45 -162 -83 -210 -44 -57 -7 -50 52 10 39 38 52 61 71
122 28 90 35 70 20 -62 -13 -113 -52 -200 -113 -253 l-42 -35 55 16 c30 9 70
25 90 35 56 28 116 103 135 168 29 100 31 101 38 29 10 -86 -9 -277 -39 -393
-12 -49 -50 -167 -83 -262 -99 -279 -113 -406 -67 -608 19 -84 40 -141 89
-240 84 -170 104 -194 60 -70 -20 55 -51 154 -71 220 -60 206 -57 400 10 590
12 36 13 25 9 -122 -9 -316 64 -570 227 -787 76 -101 144 -173 149 -158 2 6
-7 40 -19 74 -21 59 -42 208 -29 208 18 0 72 -73 96 -130 24 -55 29 -79 29
-155 0 -79 -3 -96 -27 -138 -30 -53 -24 -59 20 -22 40 34 72 101 73 156 l1 44
15 -35 c9 -20 16 -63 16 -100 1 -76 -24 -133 -75 -175 -23 -19 -27 -25 -13
-21 11 3 41 8 67 12 89 12 172 85 221 194 11 25 28 56 38 70 22 31 56 151 65
231 4 33 8 58 10 57 1 -2 15 -57 29 -123 15 -66 42 -183 60 -260 19 -77 54
-232 80 -345 25 -113 69 -297 97 -409 l50 -204 -22 -131 c-12 -72 -30 -173
-41 -224 -13 -66 -16 -99 -9 -112 9 -16 152 -80 179 -80 12 0 25 -158 16 -198
-6 -29 -8 -30 -38 -21 -62 18 -97 11 -131 -23 -26 -27 -44 -69 -96 -223 -85
-256 -111 -322 -227 -575 -25 -54 -33 -84 -30 -107 4 -23 -1 -40 -20 -65 -13
-18 -38 -59 -54 -90 -22 -43 -54 -79 -141 -156 -137 -120 -231 -219 -330 -349
-80 -104 -307 -436 -352 -515 l-28 -48 3152 0 c2997 0 3151 1 3146 18 -16 56
-26 106 -36 182 -12 90 -41 164 -110 280 l-38 65 13 175 c8 96 19 244 25 329
6 84 20 210 31 278 10 69 19 152 19 184 0 66 -13 87 -104 159 -52 42 -55 47
-51 80 3 19 19 136 35 260 29 212 54 373 66 412 3 10 39 35 80 55 93 47 182
115 195 151 10 26 24 104 89 512 47 293 87 488 110 530 21 38 155 571 199 790
22 107 52 283 66 390 40 305 63 472 90 650 60 398 107 829 120 1100 12 259
-24 503 -102 700 -53 135 -93 209 -182 344 -36 54 -70 106 -76 114 -5 9 -17
23 -26 32 -39 38 -109 128 -109 142 0 8 4 18 9 24 17 19 70 162 87 239 23 99
26 367 5 460 -25 115 -73 251 -133 376 l-60 126 32 74 c17 41 39 90 50 109 10
19 51 112 91 205 40 94 78 175 84 180 6 6 52 60 100 120 162 200 486 574 509
587 18 10 261 287 411 467 162 196 351 410 589 671 103 113 287 315 409 450
122 135 274 299 338 365 184 190 402 473 570 740 185 295 319 644 319 834 0
113 -39 292 -80 370 -69 129 -350 442 -499 555 -104 80 -229 147 -288 155 -76
11 -457 -28 -730 -74 -209 -36 -742 -161 -908 -215 -53 -17 -265 -77 -435
-124 -210 -58 -650 -193 -650 -199 0 -1 20 -60 44 -132 23 -71 53 -169 66
-218 13 -48 25 -86 27 -83 2 2 8 32 13 67 18 118 64 281 100 353 42 86 49 90
255 146 258 70 367 101 464 131 52 16 97 27 99 24 3 -2 -7 -60 -22 -127 -32
-144 -47 -340 -45 -578 l2 -164 -104 -101 c-128 -123 -361 -318 -539 -451 -30
-23 -68 -53 -84 -68 l-28 -27 5 -117 c2 -64 10 -173 17 -242 15 -152 8 -507
-15 -695 -26 -217 -65 -405 -115 -555 -48 -141 -99 -276 -100 -262 0 7 20 102
44 210 71 315 100 620 100 1057 -1 331 -13 514 -55 790 -40 271 -174 943 -185
932 -2 -2 2 -42 10 -88 50 -291 90 -622 106 -889 6 -96 17 -233 25 -305 27
-247 38 -546 26 -741 -25 -431 -95 -693 -277 -1044 -90 -172 -114 -205 -49
-65 26 55 62 132 80 170 107 232 176 494 205 784 12 126 12 601 -1 526 -5 -27
-20 -135 -34 -240 -57 -417 -76 -535 -105 -655 -43 -178 -114 -420 -153 -525
-31 -82 -224 -513 -235 -525 -11 -12 24 85 128 350 46 117 66 184 115 378 40
154 87 373 82 378 -2 2 -11 -22 -21 -54 -39 -126 -120 -328 -206 -518 -174
-378 -218 -514 -230 -699 l-7 -110 -1 93 c-3 157 38 303 163 587 213 482 260
609 319 865 46 204 60 394 60 815 -1 457 -37 943 -99 1315 -33 204 -195 762
-306 1059 -51 136 -301 592 -316 577 -2 -2 9 -30 25 -63 163 -321 352 -837
451 -1228 73 -291 151 -756 138 -825 -3 -18 -5 -14 -6 13 -2 55 -46 339 -76
492 -99 500 -293 1060 -550 1592 -83 171 -85 174 -182 271 -133 134 -217 188
-367 237 -85 28 -52 33 59 10 89 -19 173 -61 253 -126 35 -28 65 -49 67 -47 7
7 -122 167 -189 236 -102 106 -168 146 -306 188 l-45 14 73 -4 c45 -3 70 -1
67 5 -10 16 -115 65 -202 94 -46 16 -83 32 -83 37 0 14 74 9 152 -11 160 -41
278 -119 473 -315 229 -230 434 -524 610 -876 92 -183 142 -300 245 -573 46
-119 85 -215 88 -212 7 7 -93 301 -153 450 -286 706 -757 1330 -1140 1510 -99
47 -188 68 -257 62 -52 -5 -57 -3 -62 18 -8 33 -85 97 -158 132 -125 61 -312
113 -498 138 -109 15 -557 28 -675 19z m2100 -1066 c13 -23 3 -16 -36 26 -30
32 -56 64 -58 70 -7 20 74 -63 94 -96z m-398 -3 c38 -19 80 -47 93 -61 l25
-27 -35 25 c-44 32 -113 68 -165 84 -33 10 -35 13 -14 13 15 1 57 -15 96 -34z
m219 -642 c68 -94 180 -350 162 -369 -2 -2 -12 23 -22 56 -30 99 -130 289
-192 365 -32 39 -43 57 -25 40 18 -16 53 -58 77 -92z m-1201 97 c50 -6 149
-21 220 -34 235 -44 358 -65 480 -81 165 -22 369 -73 457 -114 45 -22 48 -26
76 -104 16 -45 55 -161 85 -257 142 -447 178 -584 242 -910 20 -102 38 -193
40 -203 2 -12 -1 -17 -8 -14 -7 3 -64 28 -127 56 -155 68 -249 91 -371 91
-159 0 -312 -28 -501 -92 l-68 -23 233 -1 c252 -1 390 -17 599 -69 96 -25 244
-78 260 -93 9 -9 34 -167 47 -299 9 -85 8 -107 -5 -138 -22 -54 -78 -295 -114
-490 -63 -346 -148 -629 -249 -830 -93 -183 -164 -280 -320 -436 -229 -228
-286 -268 -726 -511 -110 -60 -238 -135 -285 -166 -184 -120 -206 -125 -330
-86 -47 14 -125 46 -173 70 -107 54 -584 327 -722 413 -162 101 -153 70 -75
256 91 216 126 325 155 483 24 126 33 224 14 137 -59 -264 -124 -459 -231
-693 l-34 -74 -23 19 -23 19 64 129 c102 206 187 428 234 613 15 60 20 69 26
50 4 -12 5 -3 2 21 -4 26 -2 41 3 38 13 -8 34 157 40 328 3 77 9 131 13 120
10 -27 20 78 34 345 l11 215 95 0 c52 0 129 -3 170 -7 52 -5 68 -5 52 2 -13 6
-63 13 -110 16 -48 3 -97 7 -109 10 -21 4 -21 6 13 37 37 34 63 108 64 177 0
51 9 59 60 55 67 -4 154 -41 226 -96 36 -27 67 -49 70 -49 6 0 -44 89 -63 111
-22 27 -15 39 25 40 35 0 92 17 64 18 -7 1 -11 5 -8 9 6 10 -95 35 -243 62
-63 11 -116 20 -118 20 -2 0 11 13 29 30 l33 29 -95 -1 c-90 -1 -92 -2 -30 -7
71 -7 64 -13 -34 -30 -33 -6 -63 -8 -67 -4 -12 14 31 447 47 474 4 8 73 2 224
-17 118 -15 281 -52 351 -81 66 -26 54 -9 -33 49 -148 99 -258 145 -417 174
-74 13 -91 20 -91 34 0 28 56 236 93 345 101 295 258 563 451 771 47 50 106
106 132 123 41 27 56 31 113 31 36 0 107 -5 156 -10z m-361 -31 c-4 -7 -31
-38 -61 -69 -220 -235 -400 -554 -491 -870 -108 -376 -142 -684 -181 -1630
-13 -303 -70 -677 -136 -891 -34 -107 -108 -309 -113 -305 -2 2 13 55 32 117
91 293 115 396 151 632 34 227 43 352 75 1022 15 322 33 492 80 763 77 451
280 870 560 1159 75 77 101 100 84 72z m5465 -364 c41 -20 72 -38 69 -40 -3
-3 -29 0 -59 6 -87 19 -208 6 -349 -36 -203 -60 -379 -157 -535 -294 -71 -62
-323 -236 -331 -228 -5 4 108 332 151 439 l27 67 51 11 c92 20 269 48 402 64
72 9 180 22 240 30 61 7 144 14 185 15 67 1 84 -3 149 -34z m-224 -451 c334
-54 647 -230 881 -496 35 -40 73 -90 85 -113 l22 -42 -31 -116 c-18 -63 -48
-155 -68 -204 -36 -90 -151 -317 -200 -394 l-27 -43 -23 62 c-122 326 -377
705 -604 900 -236 203 -479 294 -845 320 l-100 7 64 38 c35 20 82 41 105 46
43 10 349 49 426 54 72 6 217 -3 315 -19z m-1525 -626 c0 -9 -4 -20 -10 -23
-6 -4 -10 9 -10 32 0 28 3 34 10 23 5 -8 10 -23 10 -32z m253 7 c262 -59 515
-199 696 -385 243 -249 493 -663 617 -1020 l43 -125 -27 -30 c-38 -41 -221
-242 -257 -283 -16 -18 -35 -30 -42 -27 -8 3 -11 0 -7 -6 7 -13 -35 -61 -47
-53 -5 3 -9 -1 -9 -8 0 -7 -6 -2 -13 12 -8 14 -19 24 -27 22 -8 -2 -10 3 -7
13 4 8 3 15 -2 15 -5 0 -32 53 -62 118 -402 883 -871 1431 -1272 1488 l-48 6
79 78 c43 43 102 108 132 144 52 64 55 66 99 66 25 0 94 -11 154 -25z m-1456
-367 c-2 -13 -4 -3 -4 22 0 25 2 35 4 23 2 -13 2 -33 0 -45z m10 -100 c-2 -13
-4 -5 -4 17 -1 22 1 32 4 23 2 -10 2 -28 0 -40z m-448 -83 c11 -52 16 -96 11
-105 -6 -10 -10 -5 -14 20 -3 19 -10 65 -16 101 -20 127 -10 119 19 -16z m458
-47 c-2 -13 -4 -3 -4 22 0 25 2 35 4 23 2 -13 2 -33 0 -45z m-3137 16 c0 -24
-14 -32 -25 -14 -3 6 -15 10 -26 10 -10 0 -19 6 -19 13 0 21 7 24 40 19 24 -3
30 -9 30 -28z m48 -8 c2 -15 1 -35 -2 -43 -9 -24 -36 3 -36 37 0 49 33 54 38
6z m-90 -208 c19 -19 14 -28 -13 -28 -18 0 -25 5 -25 20 0 22 20 26 38 8z
m-2683 -129 c-21 -101 -80 -312 -106 -379 -66 -173 -153 -301 -273 -402 -32
-27 -61 -47 -63 -44 -11 11 68 171 159 324 120 199 212 375 258 494 19 48 36
86 37 84 2 -2 -4 -36 -12 -77z m6541 -226 c233 -270 495 -627 668 -910 l39
-63 -73 -156 c-39 -85 -70 -157 -68 -159 2 -2 34 63 72 145 37 83 72 147 77
145 4 -3 34 -51 66 -106 32 -55 73 -126 92 -157 28 -48 132 -272 143 -308 4
-15 -534 -654 -557 -661 -6 -2 -21 18 -34 43 -12 26 -49 89 -81 141 l-59 93
25 56 c14 31 23 58 21 61 -2 2 -14 -19 -26 -47 -12 -28 -26 -50 -30 -48 -5 2
-50 58 -100 125 -93 125 -155 200 -316 379 -49 55 -123 137 -163 183 l-74 82
36 127 c84 296 108 460 108 732 0 177 -12 351 -38 545 l-6 50 82 -80 c45 -44
133 -139 196 -212z m-1081 -296 c8 -119 14 -254 14 -300 -2 -92 -23 184 -32
423 -7 186 0 137 18 -123z m-3090 -463 c-14 -59 -44 -151 -66 -203 -45 -106
-239 -463 -250 -459 -4 2 -25 20 -48 41 l-41 37 23 58 c32 78 59 118 175 263
99 124 173 242 208 331 10 26 20 45 22 43 2 -2 -8 -52 -23 -111z m3112 -81
c-3 -10 -5 -4 -5 12 0 17 2 24 5 18 2 -7 2 -21 0 -30z m-3512 -771 c-10 -26
-26 -78 -36 -117 l-18 -70 3 141 c2 78 7 147 11 153 5 9 15 1 32 -24 24 -36
24 -37 8 -83z m420 -110 c-3 -3 -11 0 -18 7 -9 10 -8 11 6 5 10 -3 15 -9 12
-12z m-215 -74 c0 -7 -10 -38 -21 -68 -12 -30 -33 -93 -46 -140 l-24 -85 6 95
c4 80 23 189 40 238 5 15 45 -20 45 -40z m265 42 c3 -6 -1 -7 -9 -4 -18 7 -21
14 -7 14 6 0 13 -4 16 -10z m45 -30 c0 -5 -5 -10 -11 -10 -5 0 -7 5 -4 10 3 6
8 10 11 10 2 0 4 -4 4 -10z m35 -10 c3 -5 2 -10 -4 -10 -5 0 -13 5 -16 10 -3
6 -2 10 4 10 5 0 13 -4 16 -10z m37 -29 c16 -18 15 -20 -2 -18 -11 1 -18 8
-17 19 1 10 2 18 2 18 0 0 8 -9 17 -19z m-84 -16 c-3 -3 -9 2 -12 12 -6 14 -5
15 5 6 7 -7 10 -15 7 -18z m52 21 c0 -2 -7 -9 -15 -16 -13 -11 -14 -10 -9 4 5
14 24 23 24 12z m-245 -64 c-4 16 -2 29 6 33 7 5 10 4 6 -3 -14 -21 6 -41 54
-57 27 -9 49 -20 49 -25 0 -5 14 -17 30 -27 17 -9 30 -22 30 -28 0 -6 18 -28
39 -49 25 -25 37 -44 34 -54 -4 -9 -2 -13 4 -9 11 7 63 -46 63 -63 0 -5 11
-20 25 -34 14 -14 25 -34 25 -44 0 -11 7 -26 17 -33 9 -8 32 -38 52 -68 20
-30 44 -66 53 -80 10 -14 22 -36 28 -48 5 -13 15 -23 21 -23 6 0 9 -9 6 -20
-3 -11 0 -18 6 -17 6 1 13 -8 15 -21 2 -12 7 -20 12 -17 5 3 12 -6 16 -20 3
-14 11 -24 18 -22 14 5 48 -32 40 -44 -5 -9 42 -59 55 -59 12 0 28 16 40 38 7
13 15 22 17 19 4 -4 -36 -242 -75 -447 -56 -295 -61 -382 -28 -460 14 -33 15
-29 10 71 -5 96 -1 131 41 370 94 524 89 502 109 505 38 5 156 -153 241 -323
168 -337 294 -974 272 -1373 -10 -173 -12 -178 -54 -186 -102 -19 -444 110
-720 272 -249 147 -554 360 -576 402 -14 29 -99 301 -142 455 -19 66 -27 127
-31 218 l-6 125 51 110 c105 226 116 373 41 549 -56 131 -50 323 14 495 l20
54 39 -44 c34 -38 39 -41 33 -18z m363 19 c11 -6 9 -9 -5 -13 -12 -3 -20 0
-20 8 0 16 6 17 25 5z m32 -35 c-4 -4 -16 -4 -26 2 -16 9 -14 10 8 9 15 -1 23
-6 18 -11z m31 -23 c12 -16 12 -17 -2 -6 -9 7 -20 9 -24 5 -5 -4 -5 -1 -1 6 9
16 11 15 27 -5z m3255 -208 c146 -169 287 -367 413 -577 l52 -87 -82 -173
c-44 -95 -97 -211 -116 -258 -53 -130 -155 -350 -162 -350 -3 1 -46 67 -95
147 l-89 146 2 101 c1 56 -8 180 -20 276 -25 211 -35 522 -21 641 17 133 33
220 42 217 4 -2 39 -39 76 -83z m-376 14 c0 -11 20 -120 45 -242 61 -298 75
-398 74 -519 l-1 -103 -74 153 c-103 212 -127 295 -128 447 -1 116 15 205 36
205 4 0 7 3 6 8 -1 4 1 24 5 44 6 27 12 36 22 31 8 -3 15 -14 15 -24z m-1215
-391 c-15 -66 -42 -170 -61 -229 -32 -101 -38 -112 -77 -140 -23 -17 -96 -57
-162 -90 -66 -32 -140 -72 -165 -89 l-44 -29 -28 26 c-47 45 -38 60 40 65 170
12 269 110 416 407 36 73 73 158 83 189 29 94 28 25 -2 -110z m-4305 -89 c31
-17 44 -28 30 -25 -29 6 -197 35 -214 38 -14 1 70 15 104 16 14 1 50 -12 80
-29z m3207 -74 c24 -15 147 -126 272 -248 223 -216 227 -221 215 -246 -17 -33
-214 -231 -230 -231 -6 0 -14 15 -18 33 -12 59 -87 287 -121 368 -42 97 -95
189 -168 291 -54 75 -54 76 -25 67 16 -4 50 -20 75 -34z m2042 5 c13 -19 39
-69 57 -111 40 -92 64 -253 64 -427 l-1 -117 -30 59 c-76 146 -139 409 -139
576 0 69 11 74 49 20z m250 -90 c57 -137 87 -193 204 -385 44 -71 87 -142 96
-156 9 -15 49 -80 90 -145 100 -161 212 -386 255 -514 109 -327 82 -653 -75
-909 -28 -46 -53 -81 -55 -78 -2 2 11 37 30 78 70 154 118 318 131 450 8 75
-7 192 -37 289 -22 69 -79 203 -84 197 -2 -2 6 -53 17 -113 27 -139 23 -305
-10 -442 -13 -51 -25 -92 -27 -90 -2 2 6 49 18 103 48 230 15 489 -97 762 -51
125 -216 440 -325 623 -108 182 -190 373 -190 443 0 30 4 23 59 -113z m-1222
-32 c-3 -8 -6 -5 -6 6 -1 11 2 17 5 13 3 -3 4 -12 1 -19z m-3373 -30 c-4 -6 2
-8 17 -3 20 5 21 4 9 -5 -12 -10 -11 -11 8 -7 30 7 28 0 -7 -18 -17 -8 -38
-12 -47 -8 -13 5 -15 3 -9 -7 6 -9 4 -11 -5 -5 -10 6 -7 13 11 27 16 14 18 18
7 14 -21 -6 -23 0 -5 18 13 15 31 10 21 -6z m5476 -67 c-10 -14 -32 -42 -49
-61 l-31 -35 16 40 c9 22 25 58 36 79 19 37 21 39 34 22 11 -16 11 -23 -6 -45z
m-6601 -1 c106 -26 179 -55 373 -149 129 -64 168 -88 227 -143 39 -36 71 -68
71 -70 0 -2 -39 4 -87 14 -203 41 -307 52 -508 52 -209 1 -285 -9 -427 -55
-33 -11 -64 -19 -68 -17 -14 5 60 190 101 249 49 73 146 137 209 138 14 1 63
-8 109 -19z m1479 -142 c17 -17 15 -52 -10 -164 -31 -144 -29 -336 6 -454 13
-47 23 -86 21 -88 -9 -9 -178 19 -231 39 -64 24 -91 48 -247 226 l-28 32 63
-2 c52 -1 72 3 114 26 73 41 167 158 231 290 29 59 57 107 61 107 4 0 13 -5
20 -12z m-200 -206 c-54 -88 -122 -139 -205 -153 -75 -12 -104 -5 -183 41 -36
20 -85 49 -110 63 -25 14 -67 46 -95 72 l-50 45 40 -16 c96 -39 193 -65 285
-75 83 -9 108 -8 162 6 64 16 123 42 168 75 14 10 26 17 28 15 2 -1 -16 -34
-40 -73z m4511 -99 c1 -13 -3 -23 -9 -23 -5 0 -10 19 -9 43 0 32 2 37 9 22 5
-11 9 -30 9 -42z m112 -234 c22 -66 23 -67 5 -132 -30 -110 -34 -110 -86 -10
-45 88 -45 88 -45 193 0 70 5 117 15 140 l14 34 37 -79 c21 -44 48 -109 60
-146z m-466 126 c106 -190 135 -255 135 -307 0 -30 -4 -48 -9 -42 -8 8 -85
198 -140 344 -31 81 -29 82 14 5z m-715 -2 c0 -5 7 -52 15 -105 13 -95 8 -198
-11 -230 -26 -43 -129 -168 -132 -159 -2 6 6 57 17 113 22 115 36 233 21 183
-4 -16 -16 -68 -24 -115 -31 -163 -39 -195 -61 -227 -12 -18 -25 -30 -30 -25
-5 4 -5 1 -1 -6 5 -7 -8 -31 -32 -60 -21 -26 -47 -59 -57 -74 -9 -15 -21 -25
-26 -22 -5 3 -8 2 -7 -3 5 -14 -56 -93 -68 -89 -6 3 -11 -1 -10 -9 0 -7 -32
-48 -71 -92 -105 -116 -213 -167 -468 -223 -270 -58 -597 -90 -948 -93 l-258
-2 -3 145 c-3 95 -11 182 -26 254 -11 59 -20 109 -18 110 2 0 46 23 100 49
l96 48 84 -54 c284 -182 582 -326 787 -378 103 -26 146 -25 166 5 31 47 42
385 19 549 -5 33 -3 37 15 37 37 0 275 149 289 181 2 4 39 37 83 74 l80 67 63
-60 c94 -90 136 -94 211 -16 24 25 61 73 81 107 46 76 123 150 124 120z m-202
-63 c41 0 40 -12 -6 -79 -74 -108 -111 -114 -193 -29 l-49 51 29 36 c15 20 33
46 39 58 l12 21 67 -29 c38 -15 83 -29 101 -29z m-3021 18 c-3 -8 -6 -5 -6 6
-1 11 2 17 5 13 3 -3 4 -12 1 -19z m387 -167 c21 -39 20 -43 -6 -39 -26 4 -35
33 -43 138 l-6 75 20 -72 c11 -39 27 -85 35 -102z m-316 -52 c9 -24 8 -26 -8
-22 -22 6 -60 116 -60 176 1 40 2 37 29 -43 16 -47 33 -97 39 -111z m4387 -85
c17 -115 19 -200 5 -209 -5 -3 -10 -1 -10 5 0 7 -15 48 -34 91 l-35 79 26 70
c14 39 28 69 30 67 1 -2 10 -48 18 -103z m-5302 -15 c188 -16 327 -60 442
-139 24 -17 90 -73 145 -124 184 -173 222 -186 563 -194 141 -4 257 -4 257 1
0 4 21 7 48 7 26 1 66 5 89 9 50 10 45 19 73 -130 11 -57 20 -146 20 -196 l0
-93 -77 0 c-197 0 -323 27 -605 130 -106 39 -200 70 -209 70 -22 0 -59 39
-130 138 -102 142 -147 150 -399 67 -295 -97 -440 -119 -800 -120 -282 0 -527
20 -534 44 -9 32 -35 268 -38 350 l-3 83 50 29 c57 32 147 57 244 69 100 11
730 11 864 -1z m-1439 -419 c63 -109 123 -232 140 -289 9 -31 16 -87 15 -130
l-1 -76 -21 50 c-12 28 -56 122 -100 209 -43 88 -94 198 -113 245 -32 78 -84
257 -84 285 0 6 29 -43 64 -109 34 -66 80 -149 100 -185z m6572 105 c24 -68
29 -100 32 -212 3 -95 1 -133 -7 -133 -7 0 -11 6 -10 13 3 26 -1 47 -11 47 -5
0 -7 -15 -5 -32 l5 -33 -11 30 c-7 17 -16 33 -21 36 -6 4 -19 44 -29 90 -15
65 -17 89 -9 113 6 17 13 64 17 104 3 40 10 69 14 65 4 -4 20 -44 35 -88z
m-3427 -492 c1 -41 -2 -53 -14 -53 -12 0 -15 18 -14 103 l1 102 13 -50 c7 -27
14 -74 14 -102z m4020 -326 l54 -71 -79 -74 c-43 -41 -115 -98 -159 -127 -95
-63 -214 -129 -221 -123 -8 8 88 147 181 263 48 61 102 131 119 157 17 26 36
47 41 47 6 0 34 -32 64 -72z m-1813 31 c-35 -131 -32 -326 7 -513 57 -266 79
-483 50 -492 -7 -3 -9 16 -6 62 8 98 -12 199 -84 420 -64 192 -66 204 -66 300
0 70 5 114 17 145 25 67 98 136 82 78z m-3073 -157 c58 -54 84 -106 91 -183 4
-40 20 -139 37 -221 16 -81 29 -156 29 -166 0 -18 -26 -33 -195 -111 -441
-205 -682 -257 -1214 -262 l-244 -3 -32 90 c-37 102 -171 534 -181 580 l-5 30
383 0 c316 0 407 3 518 18 251 35 333 63 619 217 107 57 143 59 194 11z m2706
-27 c-7 -16 -12 -67 -13 -114 -1 -105 19 -171 110 -377 76 -172 113 -276 121
-343 l6 -48 -54 -17 c-30 -9 -164 -36 -299 -61 -135 -24 -302 -56 -372 -69
-500 -97 -852 -125 -1310 -106 -267 12 -506 34 -548 51 -26 11 -41 50 -74 190
-8 36 -38 158 -66 273 -28 114 -59 267 -70 340 -11 72 -22 145 -25 160 l-5 28
24 -18 c55 -43 303 -98 587 -129 177 -20 670 -23 844 -5 342 34 691 104 958
191 15 5 27 5 27 0 0 -4 -16 -11 -35 -14 -19 -4 -37 -11 -40 -16 -3 -6 5 -6
22 0 56 17 85 21 78 10 -3 -5 2 -10 12 -11 10 0 28 -2 40 -3 16 -2 25 5 35 28
6 17 18 37 26 45 7 7 11 19 8 27 -3 7 0 15 7 17 18 6 19 3 6 -29z m1324 -91
c-8 -21 -22 -51 -31 -68 -9 -16 -17 -32 -17 -35 -1 -3 -6 -16 -12 -30 -23 -55
-43 -123 -38 -128 2 -3 0 -11 -5 -17 -6 -7 -13 -41 -15 -75 -3 -35 -8 -67 -11
-72 -8 -12 -125 -70 -131 -64 -8 8 18 118 43 179 28 71 210 347 228 347 3 0
-2 -17 -11 -37z m-238 -235 c-45 -85 -69 -157 -80 -241 -7 -50 -6 -50 -104
-88 -23 -9 -23 -8 -16 28 8 42 53 137 98 203 32 47 137 180 143 180 1 0 -17
-37 -41 -82z m-393 -8 c-6 -76 14 -236 39 -314 10 -33 16 -63 13 -68 -14 -22
-34 -2 -60 59 -26 60 -29 79 -29 173 0 76 5 119 18 158 10 28 20 52 21 52 1 0
0 -27 -2 -60z m567 0 c0 -10 -3 -8 -9 5 -12 27 -12 43 0 25 5 -8 9 -22 9 -30z
m-17 -138 c-7 -2 -10 -8 -6 -13 3 -5 1 -9 -5 -9 -5 0 -13 5 -16 10 -3 6 -1 10
5 10 6 0 8 4 5 10 -4 6 1 7 11 3 11 -4 13 -8 6 -11z m1348 -355 c0 -32 -11
-40 -26 -19 -9 12 -9 21 -2 29 16 20 28 15 28 -10z m-50 -27 c-8 -5 -19 -10
-25 -10 -5 0 -3 5 5 10 8 5 20 10 25 10 6 0 3 -5 -5 -10z m-206 -128 c3 -5 -1
-9 -9 -9 -8 0 -12 4 -9 9 3 4 7 8 9 8 2 0 6 -4 9 -8z m256 -79 c0 -51 -3 -64
-11 -53 -8 11 -9 9 -3 -10 4 -14 7 -29 6 -35 0 -5 -4 -80 -7 -165 -8 -182 -20
-299 -33 -312 -7 -7 -33 -14 -74 -17 -5 -1 -7 -6 -5 -12 3 -14 -359 -216 -598
-334 -295 -145 -586 -252 -926 -343 -197 -53 -396 -98 -403 -91 -2 2 9 63 24
134 39 174 82 423 77 443 -2 10 -6 -5 -11 -33 -21 -147 -104 -535 -116 -549
-18 -19 -377 -73 -635 -95 -287 -25 -511 -31 -770 -21 -143 6 -267 13 -275 17
-8 3 -40 5 -70 4 -40 -1 -51 1 -40 9 13 9 13 10 0 10 -17 1 -70 72 -70 94 0
18 -69 90 -89 93 -21 3 -56 46 -42 51 6 2 11 21 11 43 0 24 5 39 13 39 7 1 5
6 -5 14 -10 7 -18 18 -18 24 0 15 57 32 109 32 33 0 42 3 31 10 -11 7 -6 10
21 10 20 0 50 7 67 16 18 8 69 20 114 25 46 5 108 13 138 17 l55 6 -45 7 c-41
5 -38 6 25 8 39 0 113 7 165 15 52 8 130 17 173 21 42 4 77 11 77 15 0 12 144
23 278 21 67 -1 122 2 122 7 0 4 64 8 143 8 160 -1 271 21 320 62 9 8 17 12
17 8 0 -4 14 2 30 14 17 12 37 19 45 16 8 -3 15 -2 15 2 0 4 10 12 23 18 74
37 136 75 188 117 57 46 67 49 252 97 357 91 603 184 987 374 102 50 194 90
205 88 12 -1 16 1 8 6 -8 5 9 18 45 37 31 16 60 33 63 38 4 6 10 0 14 -13 6
-18 12 -21 37 -16 17 3 37 6 45 6 8 0 12 4 9 9 -3 5 3 11 14 14 11 3 18 1 15
-3 -3 -5 23 -8 57 -8 52 1 67 5 87 24 26 26 95 34 104 12 3 -7 6 -1 6 15 1 15
3 27 6 27 3 0 5 -30 5 -67z m-265 37 c3 -6 -1 -7 -9 -4 -18 7 -21 14 -7 14 6
0 13 -4 16 -10z m-80 -19 c3 -5 2 -12 -3 -15 -5 -3 -9 1 -9 9 0 17 3 19 12 6z
m-4512 -578 c20 -71 49 -184 63 -253 14 -69 36 -169 50 -222 14 -53 24 -107
22 -120 -2 -18 -28 -35 -125 -85 -124 -62 -346 -153 -373 -153 -8 0 -35 30
-60 66 -24 36 -49 68 -54 71 -5 4 15 -28 44 -70 29 -42 52 -78 49 -81 -9 -7
-168 -56 -279 -85 -130 -34 -278 -62 -489 -91 -221 -31 -203 -35 -234 63 -14
45 -40 134 -57 197 -18 63 -60 199 -95 301 l-63 186 117 6 c217 11 553 81 836
173 225 73 465 159 535 192 36 17 67 31 70 31 3 1 22 -56 43 -126z m177 -273
c0 -9 9 -25 20 -35 11 -10 20 -27 20 -37 0 -10 7 -21 15 -24 14 -6 26 -27 52
-93 16 -42 -15 -191 -39 -191 -5 0 -9 -8 -9 -17 -1 -17 -2 -17 -6 0 -7 28 -21
20 -16 -10 3 -21 0 -17 -11 11 -8 22 -14 42 -14 45 1 3 -4 20 -11 36 -24 58
-92 330 -85 338 2 1 21 1 43 -1 31 -3 41 -8 41 -22z m4485 -921 c-42 -272 -88
-480 -107 -493 -23 -14 -32 -2 -18 24 6 12 9 24 6 27 -2 3 -13 -12 -23 -33
l-18 -39 -330 -110 c-682 -228 -1207 -369 -1687 -454 -138 -25 -158 -26 -158
-13 0 14 -1 14 -12 -1 -17 -22 -297 -54 -611 -69 -254 -12 -527 -3 -792 27
-71 8 -160 15 -197 15 l-67 0 -20 68 c-11 37 -45 170 -76 296 -46 185 -54 230
-43 237 11 8 5 13 -13 11 -3 -1 -6 6 -6 14 0 17 9 18 26 2 9 -9 15 -9 17 -2 3
6 19 9 37 7 24 -2 27 -1 12 5 -44 19 40 22 188 7 685 -69 1064 -71 1561 -9
109 14 200 24 201 22 2 -2 -17 -64 -41 -138 -23 -74 -41 -136 -40 -138 2 -2
25 60 51 137 26 78 50 143 54 146 5 2 69 16 142 30 188 37 466 99 649 147 408
106 626 179 1067 358 186 75 269 105 271 96 2 -8 -9 -87 -23 -177z m-4212
-491 c9 -29 40 -143 71 -253 31 -110 59 -209 63 -220 3 -11 -29 27 -71 85 -42
58 -102 139 -134 180 -104 136 -113 150 -98 150 8 0 21 6 28 13 7 8 31 25 53
39 22 14 46 33 54 42 7 9 15 16 17 16 1 0 9 -24 17 -52z m-107 -192 c43 -60
93 -127 111 -150 63 -82 120 -172 142 -226 l22 -55 -42 -38 c-52 -46 -148 -93
-289 -142 -405 -138 -720 -202 -1056 -212 -182 -5 -192 -5 -197 13 -19 66 -77
350 -82 404 -4 36 -15 96 -26 134 -10 38 -17 72 -14 74 2 3 69 9 147 13 412
26 723 99 1073 254 66 30 123 51 126 47 3 -4 41 -56 85 -116z m4014 -616 c0
-5 -15 -16 -32 -24 -18 -8 -26 -15 -17 -15 9 -1 19 -11 21 -24 7 -35 -42 -310
-59 -328 -42 -49 -192 -101 -153 -54 7 9 10 18 7 21 -9 9 -27 -6 -27 -22 0 -8
-4 -13 -9 -10 -5 4 -17 3 -27 -1 -16 -6 -16 -7 2 -14 17 -7 17 -8 -3 -8 -13
-1 -26 0 -29 2 -4 1 -11 -9 -16 -23 -10 -24 -11 -24 -18 -5 -6 14 -9 16 -10 5
-2 -8 -2 -18 -1 -22 1 -9 -13 -11 -21 -3 -6 7 12 63 40 120 10 22 50 106 87
187 l68 146 78 31 c43 17 85 31 94 31 9 0 13 5 10 10 -3 6 -1 10 4 10 6 0 11
-4 11 -10z m-343 -336 l-114 -239 -141 -57 c-257 -104 -663 -231 -680 -213 -4
3 0 10 8 15 13 9 13 10 0 10 -9 0 -11 3 -4 8 5 4 18 29 28 55 20 53 15 67 -25
69 -13 1 -29 5 -34 9 -20 15 -161 39 -227 39 -38 0 -68 4 -68 9 0 10 -69 3
-85 -9 -5 -4 -23 -10 -38 -14 -16 -4 -44 -23 -64 -42 -21 -22 -85 -59 -162
-96 -69 -33 -155 -79 -191 -102 -102 -68 -108 -70 -136 -51 -26 17 -30 55 -15
147 4 25 4 54 -1 62 -6 10 -5 16 2 16 5 0 10 9 10 21 0 11 -5 17 -10 14 -6 -3
-14 4 -19 17 -8 18 -10 19 -10 5 -1 -16 -8 -18 -45 -16 -26 2 -51 -3 -60 -10
-21 -17 -20 -7 1 27 36 56 75 102 84 96 5 -3 8 -2 7 3 -4 16 13 53 25 53 7 0
46 5 87 11 67 9 276 29 600 59 337 31 745 129 1195 287 72 26 144 52 160 59
17 7 31 9 33 5 1 -4 -49 -115 -111 -247z m-3061 -161 c90 -14 189 -17 577 -17
354 -1 467 -4 467 -13 0 -6 -5 -15 -12 -19 -8 -5 -9 -2 -5 10 4 11 3 15 -4 11
-6 -4 -8 -14 -5 -22 4 -8 -7 -35 -24 -59 -16 -25 -30 -49 -30 -54 0 -5 -7 -7
-15 -4 -10 4 -14 2 -10 -7 2 -8 -1 -21 -8 -29 -17 -21 -86 -57 -127 -65 -19
-4 -46 -13 -60 -21 -14 -7 -74 -25 -135 -40 -105 -25 -118 -26 -347 -23 -131
2 -238 7 -238 12 0 18 -48 5 -59 -15 l-12 -23 5 23 c2 12 0 22 -5 22 -6 0 -9
6 -8 13 1 6 -1 19 -4 27 -14 35 -26 94 -20 103 3 5 1 12 -4 16 -8 5 -43 151
-43 181 0 13 -2 13 126 -7z m983 -209 c5 4 12 3 15 -2 3 -5 -10 -9 -28 -9 -25
0 -33 4 -29 14 4 10 9 11 19 2 7 -6 18 -8 23 -5z m-1058 -180 c68 -283 118
-516 112 -530 -20 -52 -452 -228 -668 -272 -181 -38 -623 -88 -710 -80 l-40 3
-127 320 c-70 176 -127 326 -128 333 0 9 35 12 143 12 268 1 517 36 737 106
223 70 538 206 610 263 14 11 26 19 27 17 2 -1 21 -79 44 -172z m2949 -450
c15 -39 12 -276 -6 -408 -8 -65 -13 -125 -10 -132 3 -7 -1 -18 -9 -24 -8 -6
-15 -21 -17 -32 -10 -67 -382 -206 -688 -257 -196 -33 -674 -74 -855 -73 -182
0 -550 41 -650 72 -33 11 -85 22 -115 26 -92 12 -91 10 -116 120 -33 142 -37
175 -22 203 27 51 79 65 473 131 342 58 1163 226 1560 319 44 11 123 29 175
40 52 12 113 25 135 30 22 5 61 9 88 10 42 1 49 -2 57 -25z m-675 -916 c48
-22 72 -85 90 -237 8 -70 -5 -331 -16 -331 -5 0 -9 7 -9 15 0 9 -7 29 -15 44
-15 29 -25 77 -49 231 -22 139 -47 211 -86 250 -11 11 -18 25 -15 30 8 14 69
12 100 -2z m-531 -43 c-7 -17 -34 -22 -159 -29 -49 -3 -107 -9 -127 -12 -31
-5 -38 -4 -38 10 0 8 11 18 25 22 37 9 161 21 237 23 56 1 66 -2 62 -14z
m-1396 -263 c23 -119 58 -281 77 -360 34 -142 35 -142 15 -162 -11 -11 -20
-24 -20 -28 0 -20 -331 -197 -479 -257 -126 -50 -211 -65 -369 -65 l-137 0
-44 83 c-24 45 -63 116 -87 157 -23 41 -58 116 -77 165 -19 50 -56 139 -81
199 -26 60 -45 110 -44 111 2 1 59 8 128 14 135 13 291 41 407 72 229 61 547
193 625 260 18 16 35 28 38 28 3 1 24 -97 48 -217z m915 133 l59 0 -6 -40 c-3
-22 -9 -111 -13 -197 -3 -87 -10 -158 -15 -158 -4 0 -8 5 -8 10 0 6 -6 10 -14
10 -8 0 -16 4 -18 10 -1 5 -27 15 -55 22 l-53 13 0 61 c0 108 41 301 59 277 3
-5 32 -8 64 -8z m-2520 -298 c12 -13 58 -76 102 -141 44 -65 103 -149 130
-187 104 -142 153 -216 181 -268 16 -30 35 -61 42 -69 10 -12 17 -32 10 -32
-94 3 -363 32 -369 41 -4 6 -14 50 -23 98 -10 47 -23 106 -31 131 -7 25 -16
70 -20 100 -3 30 -19 119 -35 198 -17 79 -30 145 -30 147 0 13 23 3 43 -18z
m2735 -218 c4 -33 -25 -59 -60 -52 -16 3 -25 10 -22 17 3 7 -2 19 -11 26 -31
25 -10 39 55 37 30 -2 35 -6 38 -28z m682 -444 c-10 -12 -10 -15 1 -15 11 0
11 -2 -1 -10 -13 -9 -13 -10 0 -11 51 -4 -133 -29 -280 -39 -96 -6 -195 -12
-219 -14 -47 -4 -91 7 -91 22 0 5 73 12 163 16 179 7 368 31 407 52 32 17 35
17 20 -1z"/>
<path d="M4292 13522 c-7 -5 21 -14 65 -21 42 -7 83 -15 91 -19 9 -3 13 -1 9
5 -6 9 -46 21 -132 38 -11 2 -26 1 -33 -3z"/>
<path d="M5960 13313 c-80 -13 -345 -91 -337 -99 2 -2 60 12 128 32 204 59
336 77 393 55 17 -7 16 -9 -10 -19 -16 -7 -83 -23 -149 -37 -204 -43 -356 -96
-458 -158 -45 -28 -61 -50 -20 -29 10 5 30 12 44 15 26 7 26 6 21 -43 -4 -40
1 -60 22 -105 15 -30 25 -59 22 -64 -4 -5 22 -12 56 -15 230 -20 317 -30 423
-47 66 -11 129 -22 140 -25 13 -4 17 -3 10 4 -8 8 -90 25 -244 48 l-34 5 29
19 c16 9 47 36 69 59 39 41 40 43 44 126 1 47 4 85 6 85 12 0 168 -57 200 -73
69 -35 115 -69 115 -86 -1 -29 -37 -98 -74 -139 -41 -45 -44 -58 -15 -65 16
-4 18 -3 9 8 -9 11 -6 16 12 25 13 7 50 33 83 59 l60 46 -23 -35 c-20 -30 -18
-29 18 10 23 25 47 57 55 71 8 14 28 32 45 39 43 18 39 40 -7 41 -27 0 -32 3
-20 8 15 5 -1 17 -69 51 -49 25 -90 50 -91 55 -4 15 34 36 52 29 8 -3 15 -12
15 -18 0 -7 7 -21 16 -32 15 -18 15 -18 9 4 -6 22 -5 23 14 13 36 -20 23 -3
-19 25 -24 16 -39 33 -36 41 4 9 -4 13 -28 13 -19 0 -75 20 -130 46 -54 25
-100 43 -103 40 -8 -8 -8 -8 75 -41 123 -48 124 -57 6 -51 -56 3 -116 9 -134
13 l-33 6 29 24 c16 12 23 23 15 23 -11 0 -10 4 3 19 16 17 15 19 -15 25 -34
6 -147 6 -189 -1z m53 -190 c4 -2 6 -21 6 -41 -1 -27 -3 -31 -6 -12 -6 34 -23
50 -23 22 0 -22 -1 -22 -29 -8 -29 15 -45 39 -34 50 6 6 70 -2 86 -11z m-103
-3 c0 -5 -9 -10 -21 -10 -11 0 -17 5 -14 10 3 6 13 10 21 10 8 0 14 -4 14 -10z
m153 -28 c10 -40 6 -72 -8 -72 -10 0 -15 10 -15 28 0 15 -3 37 -6 50 -5 17 -3
21 9 16 9 -3 18 -13 20 -22z m-373 4 c0 -2 -9 -6 -20 -9 -11 -3 -18 -1 -14 4
5 9 34 13 34 5z m-14 -172 c-3 -9 -6 -20 -6 -25 0 -5 -7 -9 -15 -9 -18 0 -20
21 -3 38 17 17 31 15 24 -4z m89 -24 c8 -13 61 -13 86 0 15 9 25 4 56 -25 l38
-36 -120 6 c-124 7 -149 13 -137 31 18 27 66 42 77 24z"/>
<path d="M6270 12756 c0 -2 11 -11 25 -20 28 -19 33 -15 9 8 -14 15 -34 22
-34 12z"/>
<path d="M5211 12692 c-2 -43 31 -177 60 -252 33 -82 32 -103 -7 -162 -25 -40
-30 -53 -15 -44 14 9 71 114 71 130 0 8 -11 38 -25 67 -13 29 -34 96 -46 148
-12 53 -25 105 -29 116 -8 19 -9 19 -9 -3z"/>
<path d="M4250 11791 c0 -23 81 -79 183 -126 74 -34 237 -89 244 -82 2 2 -27
14 -64 26 -113 38 -286 125 -326 165 -31 30 -37 33 -37 17z"/>
<path d="M5341 11630 c-19 -16 -56 -37 -82 -46 -73 -27 -50 -29 28 -4 74 24
89 34 104 62 15 28 -10 22 -50 -12z"/>
<path d="M9630 12035 c0 -5 5 -17 10 -25 5 -8 10 -10 10 -5 0 6 -5 17 -10 25
-5 8 -10 11 -10 5z"/>
<path d="M9661 12004 c0 -11 3 -14 6 -6 3 7 2 16 -1 19 -3 4 -6 -2 -5 -13z"/>
<path d="M8306 11055 c-9 -26 -7 -32 5 -12 6 10 9 21 6 23 -2 3 -7 -2 -11 -11z"/>
<path d="M8276 10985 c-9 -26 -7 -32 5 -12 6 10 9 21 6 23 -2 3 -7 -2 -11 -11z"/>
<path d="M2350 9919 c0 -5 5 -7 10 -4 6 3 10 8 10 11 0 2 -4 4 -10 4 -5 0 -10
-5 -10 -11z"/>
<path d="M7585 6571 c3 -5 -5 -17 -17 -25 -12 -9 -17 -16 -11 -16 17 0 44 30
38 41 -4 5 -8 9 -11 9 -3 0 -3 -4 1 -9z"/>
<path d="M7550 6560 c-9 -6 -10 -10 -3 -10 6 0 15 5 18 10 8 12 4 12 -15 0z"/>
<path d="M6072 5865 c0 -16 2 -22 5 -12 2 9 2 23 0 30 -3 6 -5 -1 -5 -18z"/>
<path d="M4000 5470 c0 -5 4 -10 9 -10 6 0 13 5 16 10 3 6 -1 10 -9 10 -9 0
-16 -4 -16 -10z"/>
<path d="M5596 4095 c-3 -9 -6 -22 -5 -28 0 -7 5 -1 10 12 5 13 8 26 5 28 -2
2 -6 -3 -10 -12z"/>
<path d="M5571 4019 c-6 -18 -9 -34 -7 -36 2 -2 9 10 15 28 6 18 9 34 7 36 -2
2 -9 -10 -15 -28z"/>
<path d="M5536 3925 c-9 -26 -7 -32 5 -12 6 10 9 21 6 23 -2 3 -7 -2 -11 -11z"/>
<path d="M5506 3845 c-9 -26 -7 -32 5 -12 6 10 9 21 6 23 -2 3 -7 -2 -11 -11z"/>
<path d="M5151 2942 c-8 -16 -6 -18 19 -18 16 0 27 3 24 7 -2 5 -12 5 -21 2
-12 -5 -15 -2 -10 10 9 23 0 22 -12 -1z"/>
<path d="M5815 2930 c-3 -5 -1 -10 4 -10 6 0 11 5 11 10 0 6 -2 10 -4 10 -3 0
-8 -4 -11 -10z"/>
<path d="M12855 16976 c-194 -41 -300 -87 -476 -204 -413 -276 -761 -739 -923
-1229 -86 -259 -106 -392 -113 -758 -7 -392 20 -726 78 -960 20 -79 45 -130
34 -70 -18 104 -25 171 -25 253 0 101 13 123 24 40 23 -176 106 -400 201 -540
l34 -51 -24 -19 c-30 -24 -42 -63 -50 -168 -9 -118 23 -324 101 -649 18 -79
34 -150 34 -157 0 -8 -21 -24 -47 -35 -26 -11 -49 -22 -51 -24 -7 -6 28 -75
88 -176 59 -98 83 -129 102 -129 19 0 5 96 -37 255 -143 538 -204 884 -168
949 9 16 11 13 16 -21 4 -25 17 -48 34 -64 15 -13 22 -17 16 -9 -16 21 -53
121 -53 143 0 27 29 77 44 77 24 0 46 -36 65 -111 133 -508 200 -703 347
-1021 35 -76 64 -144 64 -152 0 -35 99 -339 184 -569 52 -138 105 -288 117
-332 12 -44 30 -109 40 -145 l18 -65 -46 -60 c-26 -33 -50 -62 -53 -65 -3 -3
-27 -34 -52 -69 -84 -114 -197 -229 -326 -332 l-126 -100 -17 22 c-25 33 -127
199 -194 314 -177 305 -241 417 -273 475 -77 142 -112 197 -156 240 -25 24
-46 40 -47 35 0 -6 -4 -1 -9 10 -24 57 7 205 43 205 8 0 45 -23 83 -51 l69
-51 -69 64 c-68 63 -69 64 -63 106 5 43 48 112 69 112 6 0 65 -27 130 -61 70
-35 128 -59 141 -57 21 4 21 5 -5 18 -25 12 -28 19 -28 64 0 42 -11 73 -61
176 -136 280 -194 413 -273 634 -26 71 -65 176 -87 234 -46 120 -58 208 -39
277 10 35 17 45 34 45 20 1 20 1 3 11 -28 16 -38 0 -53 -80 -9 -47 -10 -86 -4
-123 8 -51 163 -480 236 -651 19 -45 34 -86 34 -92 0 -7 -46 -33 -102 -60
-290 -138 -427 -238 -548 -399 -43 -56 -45 -63 -43 -120 1 -55 41 -269 77
-417 l13 -56 -366 -183 -366 -184 -81 -80 c-86 -86 -158 -186 -217 -301 -64
-125 -108 -229 -117 -275 -25 -134 -72 -492 -90 -680 -11 -119 -38 -316 -60
-440 -22 -124 -49 -299 -60 -390 -11 -91 -38 -280 -60 -420 -41 -267 -55 -365
-65 -465 -3 -33 -17 -123 -31 -200 -56 -324 -78 -706 -55 -955 29 -313 31
-288 -60 -854 -32 -195 -35 -300 -11 -405 7 -29 6 -68 -1 -120 -7 -46 -11
-255 -12 -536 0 -519 6 -579 70 -711 119 -245 422 -390 938 -449 53 -6 57 -8
57 -32 0 -24 -22 -202 -50 -411 -5 -40 -28 -121 -51 -180 -23 -59 -49 -135
-59 -169 -24 -82 -67 -415 -75 -581 -7 -142 -31 -262 -84 -414 -37 -106 -38
-122 -6 -173 58 -94 65 -133 44 -225 -41 -176 -88 -573 -96 -817 l-6 -181 31
-19 c31 -19 31 -20 12 -39 -14 -15 -21 -45 -30 -134 -6 -63 -13 -136 -17 -163
l-6 -47 3002 0 3001 0 0 224 0 225 -25 19 c-14 11 -21 23 -16 26 5 4 21 27 35
52 28 51 34 114 16 191 -6 23 -19 159 -30 302 -24 310 -41 404 -94 507 -16 30
-15 33 14 89 50 95 48 108 -68 520 -91 323 -175 629 -201 732 -17 66 -21 113
-21 245 0 91 3 167 6 171 4 3 29 -22 57 -56 98 -119 195 -223 266 -282 l71
-60 0 -104 c0 -103 0 -103 -22 -96 -91 28 -108 29 -136 8 -46 -34 -42 -76 18
-155 81 -108 191 -188 283 -208 23 -4 71 -20 106 -35 54 -23 75 -26 134 -23
59 3 73 8 91 28 20 24 26 25 111 22 73 -3 102 1 147 18 100 37 105 55 68 284
-20 126 -25 177 -36 338 -4 59 -3 98 3 98 5 0 27 -33 49 -74 l39 -75 -21 -28
c-12 -16 -24 -40 -28 -53 -7 -24 -7 -24 18 5 48 57 51 76 21 136 -15 30 -38
69 -52 87 l-24 32 21 35 c27 44 12 46 -20 3 -13 -18 -25 -51 -28 -77 -6 -70
14 -299 43 -474 14 -85 23 -162 19 -170 -3 -8 -31 -27 -63 -41 -50 -22 -73
-26 -151 -26 l-93 0 7 63 c3 34 15 156 26 270 12 129 26 219 35 237 17 34 18
40 6 40 -17 0 -39 -66 -46 -140 -39 -453 -46 -493 -81 -509 -38 -17 -112 -13
-184 12 -77 26 -74 -1 -32 279 23 157 34 202 51 224 21 27 22 42 2 29 -27 -16
-45 -80 -77 -273 -19 -114 -34 -210 -34 -214 0 -15 -46 -7 -96 16 -68 32 -123
82 -177 164 -61 90 -64 105 -31 127 25 16 31 16 73 3 l46 -14 1 -60 c1 -32 5
-58 10 -57 11 3 20 73 30 219 l7 111 -139 139 c-94 93 -187 201 -284 329 -165
215 -257 318 -311 346 -21 10 -40 23 -43 28 -10 15 24 308 45 389 25 100 82
232 136 316 54 84 150 182 187 192 16 4 56 0 92 -9 51 -13 70 -24 96 -54 18
-20 44 -46 58 -57 13 -12 47 -41 75 -66 152 -138 355 -295 355 -276 0 2 -51
46 -112 98 -62 52 -148 128 -191 168 l-78 73 54 17 c66 21 140 69 231 152 80
72 131 146 177 256 62 149 287 822 298 891 6 38 11 119 11 180 0 106 2 114 46
233 58 155 62 190 35 300 -29 118 -29 118 103 415 39 88 39 91 71 473 8 102
19 268 25 370 5 102 16 275 25 385 29 400 38 639 39 1115 1 518 -3 579 -50
784 -30 130 -66 200 -158 307 -113 132 -296 274 -587 455 -78 48 -142 93 -144
98 -1 6 -14 49 -29 95 -21 66 -36 95 -74 136 -26 29 -94 128 -151 221 -247
399 -406 639 -458 690 -85 85 -191 133 -523 235 -181 56 -387 135 -427 164
-16 12 -16 17 0 90 10 47 39 124 76 199 57 117 148 267 170 280 8 5 11 -20 11
-82 0 -114 15 -192 51 -267 l28 -60 1 137 c0 79 6 166 14 205 16 77 63 208 99
279 l24 47 7 -79 c4 -43 11 -97 15 -119 l8 -40 7 60 c29 240 46 298 158 544
231 508 293 757 292 1181 -1 339 -42 594 -145 886 -99 283 -327 626 -547 822
-246 218 -428 308 -779 381 -240 51 -333 61 -564 60 -184 0 -230 -4 -324 -23z
m584 -1 c269 -34 582 -115 734 -191 246 -124 517 -386 697 -674 210 -335 329
-793 330 -1261 0 -180 -38 -461 -79 -584 -24 -69 -24 -78 5 140 21 158 30 531
15 635 -20 141 -44 260 -53 260 -5 0 -6 12 -3 28 l6 27 -15 -30 -15 -30 5 33
c2 17 6 46 9 62 6 40 -2 38 -14 -2 -7 -26 -9 -28 -10 -10 -1 13 -5 21 -10 18
-5 -3 -11 4 -14 16 -4 12 -9 19 -13 15 -4 -3 -2 -19 4 -34 16 -40 27 -237 14
-229 -6 4 -14 27 -18 51 -3 25 -11 45 -16 45 -5 0 -7 4 -4 8 5 9 -16 99 -39
167 -17 50 -89 278 -90 285 0 3 -33 70 -72 150 -53 108 -71 137 -70 113 1 -18
6 -33 11 -33 4 0 5 -12 2 -26 -5 -18 -3 -24 5 -18 8 4 9 3 5 -5 -4 -6 -1 -35
8 -64 20 -69 28 -147 16 -147 -6 0 -11 17 -11 38 -1 23 -3 28 -6 15 -7 -39
-19 -25 -16 20 1 32 0 36 -5 15 l-7 -28 -25 38 c-25 38 -50 67 -107 129 -18
19 -33 39 -33 45 0 5 -18 27 -40 48 -22 21 -40 46 -40 54 0 9 -5 16 -10 16 -6
0 -19 14 -29 31 -11 17 -33 40 -51 50 -20 13 -30 25 -26 35 3 8 -2 21 -12 29
-22 19 -50 47 -122 122 -38 40 -65 60 -74 57 -9 -3 -20 3 -28 15 -7 12 -21 21
-30 21 -11 0 -18 8 -18 19 0 16 -11 20 -80 26 -64 6 -80 10 -81 24 0 12 -2 12
-8 -4 -6 -15 -9 -10 -16 25 l-8 45 -8 -40 c-10 -52 -11 -115 -1 -115 4 0 8
-18 8 -40 1 -22 -1 -40 -5 -40 -3 0 -14 26 -24 58 -19 61 -60 151 -53 117 2
-11 7 -29 11 -40 l8 -20 -16 20 c-9 11 -17 15 -17 9 0 -5 -7 -19 -16 -30 -14
-18 -14 -17 -3 6 7 14 13 44 14 68 0 35 -2 39 -12 26 -14 -19 -42 -7 -67 30
-10 16 -22 23 -31 19 -10 -3 -30 10 -55 37 -34 37 -43 42 -73 38 -23 -2 -33 0
-31 7 7 18 -86 54 -159 61 -37 3 -105 3 -151 -1 -74 -6 -85 -9 -91 -28 l-7
-22 -6 23 c-7 23 -29 28 -24 5 1 -6 -2 -14 -8 -18 -5 -3 -7 0 -4 8 3 8 -2 20
-11 27 -13 11 -18 8 -36 -15 -15 -18 -28 -25 -41 -22 -14 4 -18 1 -14 -9 4
-11 -5 -14 -39 -14 -33 0 -43 -3 -39 -13 3 -10 -3 -13 -23 -10 -15 3 -50 -5
-78 -17 -27 -12 -58 -23 -69 -26 -10 -2 -29 -10 -42 -19 -13 -8 -26 -15 -30
-14 -3 0 -12 -8 -19 -18 -7 -10 -17 -15 -21 -11 -5 6 58 100 86 128 3 3 12 14
20 24 13 18 13 19 0 11 -30 -17 -176 -119 -220 -154 -24 -20 -53 -43 -63 -51
-82 -64 -156 -134 -150 -143 3 -6 1 -7 -5 -3 -11 6 -52 -30 -52 -46 0 -4 -6
-8 -12 -8 -7 0 -34 -23 -60 -52 -26 -29 -48 -48 -48 -42 0 10 48 81 87 129 38
47 53 70 53 82 0 8 -4 11 -10 8 -5 -3 -10 -1 -10 4 0 6 -14 11 -31 11 -20 0
-28 -4 -23 -12 4 -6 -3 -4 -17 5 -25 18 -44 22 -35 8 3 -5 -6 -12 -20 -15 -14
-4 -87 -68 -166 -146 -143 -142 -149 -143 -46 -8 215 284 564 552 828 636 219
70 466 89 729 57z m-839 -439 c0 -3 -4 -8 -10 -11 -5 -3 -10 -1 -10 4 0 6 5
11 10 11 6 0 10 -2 10 -4z m1180 -20 c0 -3 -4 -8 -10 -11 -5 -3 -10 -1 -10 4
0 6 5 11 10 11 6 0 10 -2 10 -4z m107 -58 c-3 -7 -5 -2 -5 12 0 14 2 19 5 13
2 -7 2 -19 0 -25z m-377 -1128 c67 -248 101 -352 156 -469 24 -52 44 -97 44
-100 0 -3 -36 -5 -81 -3 -128 5 -242 -13 -328 -54 -41 -19 -72 -36 -70 -39 3
-2 23 0 45 5 65 15 323 29 406 23 l76 -6 54 -70 c29 -39 59 -77 66 -86 7 -9 1
11 -13 44 -14 33 -30 64 -36 70 -14 14 -11 35 5 35 23 0 271 -242 274 -269 3
-20 0 -22 -15 -17 -49 20 -229 68 -318 85 -152 30 -178 33 -205 22 -22 -8 -18
-10 25 -11 170 -2 515 -100 515 -145 0 -20 -2 -19 -60 10 -186 94 -382 120
-537 70 -43 -14 -91 -34 -108 -45 l-30 -21 30 7 c27 7 29 6 16 -9 -18 -23 -5
-21 67 8 34 14 68 25 75 25 10 0 13 -21 13 -82 0 -78 4 -94 42 -172 2 -4 -20
-5 -49 -1 -84 11 -53 -3 56 -25 189 -39 368 -49 350 -19 -4 5 -14 9 -25 9 -15
0 -14 5 10 30 16 17 42 58 58 90 25 50 32 57 42 44 10 -12 10 -25 -4 -65 -19
-59 -14 -75 17 -54 12 8 25 15 30 15 29 0 -41 -517 -103 -760 -29 -113 -113
-358 -174 -505 l-16 -40 30 35 c31 36 96 140 140 222 13 26 26 46 27 44 7 -7
-75 -224 -108 -286 -19 -37 -48 -74 -66 -86 -74 -49 -542 -230 -812 -313 -217
-67 -256 -68 -337 -8 -33 24 -86 68 -118 98 -81 74 -379 391 -431 459 -84 109
-165 280 -190 400 -6 34 -3 31 77 -52 75 -80 174 -168 188 -168 3 0 -19 51
-48 113 -30 61 -70 159 -89 217 -33 102 -75 318 -87 450 l-6 65 29 -85 c37
-111 71 -197 115 -294 37 -80 59 -101 32 -30 -45 116 -77 259 -105 469 -30
218 -34 282 -20 268 23 -23 33 -13 11 10 -30 32 -28 46 3 17 32 -30 37 -24 20
25 -30 84 -19 106 60 119 22 4 52 9 68 12 26 5 27 5 27 -43 0 -43 12 -100 34
-171 8 -23 6 -23 -41 -18 -40 4 -35 2 27 -14 41 -11 126 -25 188 -32 l114 -12
19 25 c36 45 69 118 69 154 0 42 5 43 42 8 39 -38 35 -15 -7 34 -39 45 -115
98 -158 109 -16 3 -24 9 -19 13 13 8 -89 16 -220 16 -58 0 -105 2 -102 4 2 2
32 10 67 17 45 9 53 12 29 13 -48 1 -172 -28 -210 -50 -42 -24 -42 -24 -42 11
0 25 7 33 43 51 56 29 163 96 207 130 l35 28 86 -15 c118 -19 184 -37 270 -74
41 -17 81 -34 89 -38 8 -3 -2 13 -22 36 -21 23 -38 48 -38 55 0 7 22 20 48 29
96 34 184 106 306 248 30 36 37 40 31 20 -18 -63 -84 -165 -142 -221 -34 -32
-60 -59 -59 -59 12 0 121 42 156 60 93 47 222 194 290 329 34 69 114 268 126
314 3 16 10 25 14 20 4 -4 31 -96 60 -203z m-903 -215 c-6 -71 -40 -246 -52
-264 -2 -5 -29 -2 -57 5 -29 8 -70 19 -92 25 l-39 11 40 41 c58 61 134 155
168 210 17 26 32 47 34 47 2 0 1 -34 -2 -75z m540 -100 c-15 -13 -38 -35 -50
-48 -12 -13 -16 -15 -8 -5 8 10 11 18 7 18 -4 0 -1 7 8 15 8 8 17 15 21 15 4
0 13 7 21 15 9 8 18 15 22 15 4 0 -5 -12 -21 -25z m498 -286 c29 -1 29 -1 5
-8 -39 -12 -311 -22 -275 -10 53 17 139 28 190 23 28 -2 64 -4 80 -5z m-1187
-185 c15 -4 22 -14 22 -30 l0 -25 -30 23 c-44 32 -41 45 8 32z m95 -42 c17
-15 24 -72 10 -85 -12 -13 -43 26 -44 57 -1 17 -3 23 -6 14 -7 -29 -23 -20
-23 13 0 27 3 30 23 23 12 -3 30 -13 40 -22z m-253 -92 c0 -5 -7 -10 -15 -10
-8 0 -15 5 -15 10 0 6 7 10 15 10 8 0 15 -4 15 -10z m115 -50 c3 -5 24 -10 45
-10 30 0 42 -5 50 -21 7 -11 9 -23 6 -26 -7 -7 -111 -5 -154 3 -42 8 -47 19
-22 44 21 21 64 27 75 10z m1449 -16 c9 -3 16 -17 16 -30 0 -27 -10 -24 -60
15 l-25 21 27 0 c14 0 33 -3 42 -6z m46 -50 c0 -21 -4 -33 -10 -29 -17 10 -11
65 7 65 2 0 3 -16 3 -36z m44 7 c21 -23 13 -43 -12 -34 -16 6 -16 5 0 -13 13
-15 14 -23 6 -39 -11 -19 -11 -19 -19 0 -10 27 -11 105 -1 105 5 0 17 -9 26
-19z m-309 -91 c3 -5 -1 -10 -9 -10 -9 0 -16 5 -16 10 0 6 4 10 9 10 6 0 13
-4 16 -10z m105 -18 c0 -29 20 -41 54 -35 17 3 36 10 42 15 15 11 48 -38 40
-59 -5 -13 -16 -14 -59 -9 -28 4 -74 9 -101 11 -26 2 -53 8 -58 13 -16 16 0
48 35 65 42 21 47 21 47 -1z m1150 -22 c67 -36 50 -263 -31 -425 -49 -98 -167
-231 -187 -211 -2 2 11 46 27 97 32 99 91 324 111 422 11 56 12 57 46 57 23 0
33 4 28 11 -3 6 -19 9 -35 7 -23 -4 -29 -1 -29 13 0 17 24 38 43 39 5 0 17 -4
27 -10z m-3026 -922 c45 -43 103 -93 129 -111 58 -40 149 -155 219 -278 72
-125 100 -192 85 -200 -35 -20 -291 -98 -297 -92 -34 37 -256 784 -228 767 6
-4 47 -42 92 -86z m1946 -512 c0 -2 -22 -30 -49 -62 -28 -32 -48 -60 -46 -62
6 -6 124 38 161 60 l34 20 -8 -34 c-4 -18 -7 -163 -7 -323 0 -293 10 -406 40
-464 17 -35 122 -122 274 -227 l116 -81 -3 -49 c-1 -26 -14 -87 -28 -135 l-26
-86 -107 -49 c-58 -27 -181 -85 -272 -130 -214 -106 -311 -141 -555 -203 -292
-74 -323 -88 -400 -184 -31 -37 -59 -65 -64 -62 -23 14 -105 137 -136 204
-107 231 -141 281 -192 281 -28 0 -30 4 -52 77 -13 43 -47 142 -76 222 -30 79
-54 147 -54 151 0 5 15 13 33 19 19 6 63 31 100 55 55 36 67 41 71 27 13 -44
28 -241 22 -289 -5 -40 -3 -53 6 -50 6 2 16 18 20 34 8 28 -4 207 -23 349 -30
218 -39 314 -39 435 0 144 7 170 50 201 23 18 28 18 75 4 55 -17 94 -14 203
16 95 26 477 158 562 194 36 15 116 45 179 67 63 21 130 48 150 58 40 21 41
22 41 16z m394 -225 c12 -18 -6 -13 -61 19 l-52 30 31 53 c17 28 38 64 47 79
16 27 16 25 22 -71 4 -54 9 -104 13 -110z m-2863 -1176 c33 -58 34 -61 14 -69
-20 -7 -47 24 -88 103 -56 107 -56 125 -2 66 26 -27 60 -72 76 -100z m2033
-778 c16 -12 16 -18 -3 -117 -11 -58 -26 -138 -33 -179 l-13 -73 -50 35 c-49
34 -50 36 -48 83 3 101 25 218 46 242 23 25 73 30 101 9z m-1492 -195 c-7 -10
-20 -31 -29 -49 -15 -30 -15 -35 1 -71 15 -33 16 -47 7 -98 -18 -98 -69 -568
-82 -749 -7 -93 -14 -172 -16 -175 -2 -2 -8 2 -13 10 -8 12 -10 11 -10 -5 0
-17 -2 -17 -10 -5 -8 12 -10 10 -10 -10 0 -15 -3 -21 -10 -14 -23 23 80 1141
116 1258 5 15 12 10 37 -29 25 -38 28 -50 19 -63z"/>
<path d="M13430 16860 c-9 -6 -10 -10 -3 -10 6 0 15 5 18 10 8 12 4 12 -15 0z"/>
<path d="M13600 16781 c0 -6 4 -13 10 -16 6 -3 7 1 4 9 -7 18 -14 21 -14 7z"/>
<path d="M13849 16552 c6 -12 9 -28 5 -34 -4 -7 -3 -8 4 -4 17 10 15 31 -5 47
-15 13 -15 12 -4 -9z"/>
<path d="M12275 16550 c3 -5 11 -10 16 -10 6 0 7 5 4 10 -3 6 -11 10 -16 10
-6 0 -7 -4 -4 -10z"/>
<path d="M12325 16550 c-8 -13 3 -30 18 -29 9 0 9 2 0 6 -7 2 -13 9 -13 15 0
6 7 7 16 4 8 -3 12 -2 9 4 -8 13 -22 13 -30 0z"/>
<path d="M13911 16544 c0 -11 3 -14 6 -6 3 7 2 16 -1 19 -3 4 -6 -2 -5 -13z"/>
<path d="M12259 16511 c12 -8 12 -12 -2 -25 -20 -20 -38 -21 -31 -1 4 8 1 15
-5 15 -12 0 -14 -11 -5 -34 3 -9 12 -16 20 -16 8 0 14 -6 14 -12 0 -7 12 0 26
16 24 27 24 29 8 47 -9 11 -22 19 -28 19 -6 0 -5 -4 3 -9z m16 -41 c-10 -11
-20 -18 -23 -15 -7 6 18 35 31 35 5 0 2 -9 -8 -20z"/>
<path d="M12180 16500 c-13 -8 -12 -10 3 -10 9 0 17 5 17 10 0 12 -1 12 -20 0z"/>
<path d="M12146 16466 c3 -8 13 -12 25 -9 27 7 24 23 -6 23 -17 0 -23 -4 -19
-14z"/>
<path d="M14937 15713 c3 -7 6 -13 8 -13 2 0 5 6 8 13 3 8 -1 14 -8 14 -7 0
-11 -6 -8 -14z"/>
<path d="M14971 15634 c0 -11 3 -14 6 -6 3 7 2 16 -1 19 -3 4 -6 -2 -5 -13z"/>
<path d="M15011 15610 c14 -31 19 -36 19 -24 0 6 -7 19 -16 30 -14 18 -14 18
-3 -6z"/>
<path d="M14981 15584 c0 -11 3 -14 6 -6 3 7 2 16 -1 19 -3 4 -6 -2 -5 -13z"/>
<path d="M14994 15562 c-6 -4 -8 -16 -4 -26 6 -18 7 -18 13 4 7 28 6 32 -9 22z"/>
<path d="M15020 15545 c-5 -14 -12 -38 -15 -53 -4 -23 -4 -24 4 -7 9 19 10 19
10 -3 1 -33 32 -77 42 -60 5 7 9 22 9 32 0 20 0 20 -14 0 -14 -18 -15 -18 -21
8 -4 15 -5 46 -3 68 4 46 1 50 -12 15z"/>
<path d="M12438 14673 c7 -3 16 -2 19 1 4 3 -2 6 -13 5 -11 0 -14 -3 -6 -6z"/>
<path d="M12539 14641 c40 -16 85 -40 99 -53 24 -23 24 -23 13 -1 -13 25 -100
70 -151 78 -23 4 -10 -4 39 -24z"/>
<path d="M12333 14643 c9 -2 23 -2 30 0 6 3 -1 5 -18 5 -16 0 -22 -2 -12 -5z"/>
<path d="M12595 14280 c-3 -5 -2 -10 4 -10 5 0 13 5 16 10 3 6 2 10 -4 10 -5
0 -13 -4 -16 -10z"/>
<path d="M12765 13910 c-30 -60 -55 -116 -55 -123 0 -17 77 -177 85 -177 9 0
-4 38 -31 93 -29 60 -30 82 -3 144 34 78 69 173 64 173 -3 0 -30 -49 -60 -110z"/>
<path d="M12599 13230 c13 -11 33 -20 45 -20 18 0 16 3 -12 20 -42 26 -64 25
-33 0z"/>
<path d="M13145 13160 l-90 -6 120 -1 c66 -1 131 3 145 7 30 10 -37 10 -175 0z"/>
<path d="M14901 14084 c0 -11 3 -14 6 -6 3 7 2 16 -1 19 -3 4 -6 -2 -5 -13z"/>
<path d="M7354 14398 c3 -13 26 -115 51 -228 25 -113 59 -263 75 -335 16 -71
34 -161 40 -200 6 -38 26 -142 44 -230 27 -124 34 -149 35 -112 1 26 -11 100
-25 165 -43 199 -64 323 -64 382 0 78 -136 580 -157 580 -3 0 -3 -10 1 -22z"/>
<path d="M11240 13168 c0 -10 34 -82 56 -118 12 -19 56 -102 99 -183 42 -82
79 -147 81 -144 2 2 -20 48 -49 103 -30 54 -82 153 -117 219 -63 121 -70 133
-70 123z"/>
<path d="M11502 12665 c12 -24 23 -43 26 -41 4 5 -36 86 -43 86 -3 0 5 -20 17
-45z"/>
<path d="M11908 12004 c13 -25 42 -50 42 -37 0 5 -12 20 -26 34 -24 21 -26 22
-16 3z"/>
<path d="M16500 3857 c0 -2 32 -28 72 -58 58 -44 76 -65 100 -114 15 -33 28
-53 28 -45 -1 35 -58 116 -110 157 -55 43 -90 67 -90 60z"/>
<path d="M16706 3600 c4 -14 13 -38 20 -55 11 -24 13 -25 8 -5 -4 14 -13 39
-20 55 -11 24 -13 25 -8 5z"/>
<path d="M16550 3536 c0 -11 40 -86 45 -86 3 0 -4 19 -16 43 -23 45 -29 54
-29 43z"/>
<path d="M16756 3460 c12 -45 112 -286 173 -416 34 -70 61 -135 61 -144 0 -10
-24 -38 -52 -63 -29 -24 -84 -71 -123 -104 -85 -73 -165 -158 -165 -175 0 -7
37 24 83 68 45 44 100 95 122 114 104 86 145 131 145 161 0 16 -22 74 -49 128
-27 54 -79 169 -116 257 -36 87 -70 168 -75 179 -9 17 -9 16 -4 -5z"/>
<path d="M16600 3431 c0 -5 5 -13 10 -16 6 -3 10 -2 10 4 0 5 -4 13 -10 16 -5
3 -10 2 -10 -4z"/>
<path d="M16621 3395 c1 -19 18 -51 18 -35 0 8 -4 22 -9 30 -5 8 -9 11 -9 5z"/>
</g>
</svg>
